<?xml version="1.0" standalone="no"?>
<!DOCTYPE svg PUBLIC "-//W3C//DTD SVG 20010904//EN"
 "http://www.w3.org/TR/2001/REC-SVG-20010904/DTD/svg10.dtd">
<svg version="1.0" xmlns="http://www.w3.org/2000/svg"
 width="944.000000pt" height="1080.000000pt" viewBox="0 0 944.000000 1080.000000"
 preserveAspectRatio="xMidYMid meet">
<metadata>
Created by potrace 1.16, written by Peter Selinger 2001-2019
</metadata>
<g transform="translate(0.000000,1080.000000) scale(0.100000,-0.100000)"
fill="#000000" stroke="none">
<path d="M6267 10789 c-40 -23 -52 -75 -53 -234 -1 -192 -2 -205 -14 -205 -12
0 -33 81 -52 202 -19 118 -43 172 -79 176 -15 2 -32 -5 -43 -17 -34 -37 -38
-103 -20 -281 16 -156 14 -240 -6 -240 -9 0 -19 27 -51 148 -33 128 -95 177
-153 119 -60 -60 -34 -235 66 -442 39 -81 65 -162 87 -267 8 -38 22 -68 42
-89 34 -36 36 -54 10 -68 -29 -16 -59 -89 -67 -161 -16 -164 55 -622 166
-1075 102 -416 205 -731 310 -951 l57 -122 -44 -73 c-64 -105 -175 -319 -219
-422 -27 -62 -47 -95 -68 -110 -97 -68 -116 -90 -140 -167 -13 -41 -27 -89
-30 -107 -4 -17 -13 -36 -19 -42 -40 -33 -592 -211 -654 -211 -5 0 -40 37 -77
83 -173 209 -287 317 -338 317 -7 0 -35 41 -63 92 -132 242 -239 335 -305 266
-18 -20 -21 -32 -18 -83 5 -68 40 -147 118 -261 l48 -72 -30 -22 c-66 -48 -86
-126 -48 -187 23 -38 54 -56 86 -50 21 4 24 0 24 -25 0 -16 7 -44 15 -64 l14
-35 -142 -142 c-154 -154 -311 -322 -451 -485 l-88 -102 -40 45 c-53 60 -172
117 -320 155 -90 22 -1141 257 -1276 285 l-33 7 3 130 3 131 48 14 c55 16 130
83 140 125 4 14 59 507 122 1097 88 818 113 1077 104 1092 -14 27 -90 74 -152
95 l-49 16 6 127 c3 69 9 188 12 263 l7 138 186 212 c102 116 185 219 185 227
-2 29 -44 206 -56 236 -15 40 -37 65 -57 65 -13 0 -480 -493 -583 -615 -34
-40 -35 -55 -43 -366 l-7 -257 -47 -6 c-74 -10 -146 -36 -176 -63 -22 -21 -26
-32 -22 -62 2 -20 0 -106 -5 -191 -88 -1590 -107 -1974 -94 -2004 16 -39 71
-88 125 -112 l41 -18 0 -103 c0 -76 -3 -103 -12 -103 -7 0 -92 16 -189 35
-585 114 -1094 185 -1327 185 -180 0 -292 -41 -387 -141 -62 -65 -95 -129
-122 -234 -33 -129 -23 -589 23 -1030 12 -118 233 -1794 249 -1892 l6 -33 -69
0 c-92 0 -97 -7 -96 -124 2 -94 61 -422 87 -475 l12 -26 250 -13 c138 -7 278
-15 313 -18 l62 -6 0 -72 c0 -204 73 -431 198 -620 61 -92 216 -246 315 -314
273 -188 633 -246 966 -157 404 108 739 460 828 870 8 39 18 119 22 178 l6
108 685 0 c377 -1 897 -4 1155 -8 l470 -6 32 -99 c143 -435 518 -849 965
-1063 189 -90 370 -143 588 -170 88 -11 -489 -13 -3492 -14 l-3598 -1 0 -400
0 -400 4720 0 4720 0 0 400 0 400 -987 1 c-888 1 -977 3 -875 15 261 31 510
114 731 243 171 100 410 309 534 467 287 366 419 810 378 1269 -41 449 -208
801 -537 1130 -63 63 -114 117 -114 120 0 14 114 265 121 265 4 0 33 -33 65
-72 32 -40 105 -128 163 -195 86 -101 111 -124 139 -129 51 -10 173 4 244 27
68 23 138 56 138 65 0 24 -451 642 -667 915 l-123 156 -68 6 c-37 4 -117 7
-178 7 -61 0 -180 3 -264 7 l-153 6 6 111 c6 129 31 226 103 392 79 185 72
266 -30 330 -25 16 -45 37 -46 46 0 10 11 75 25 145 60 309 80 482 91 788 8
204 -3 294 -42 364 -23 41 -24 53 -24 202 0 142 2 158 18 163 9 3 25 28 35 55
10 28 28 63 41 78 13 16 30 48 37 72 12 41 12 45 -10 62 -15 12 -39 19 -67 19
-40 0 -44 2 -44 24 0 62 13 88 56 115 55 33 58 54 7 50 -33 -3 -38 -1 -35 16
6 34 41 94 61 104 15 9 39 0 118 -41 91 -46 104 -50 145 -44 89 13 171 120
204 265 23 101 13 154 -37 204 l-39 39 -70 -4 c-38 -2 -70 -2 -70 0 0 2 11 18
24 35 29 39 59 99 76 152 7 22 29 58 49 80 87 95 156 219 187 339 21 77 23
261 5 336 -28 115 -75 197 -164 286 -52 52 -103 92 -134 107 -27 12 -68 37
-91 55 -78 62 -206 101 -329 102 -170 0 -263 -59 -316 -201 -10 -26 -26 -54
-37 -64 -19 -17 -24 -17 -107 0 -118 24 -260 31 -320 16 -63 -16 -123 -58
-140 -98 -17 -42 -17 -115 1 -157 18 -44 69 -100 133 -147 l53 -39 -30 -82
c-38 -105 -123 -246 -206 -346 -89 -107 -152 -202 -190 -291 l-33 -75 -64 66
c-141 143 -244 349 -307 611 -10 43 -23 84 -29 90 -5 7 -14 56 -21 110 l-11
98 48 56 c93 109 161 168 242 211 98 53 120 83 102 144 -16 51 -59 78 -126 78
-53 0 -121 -26 -144 -53 -25 -31 -33 -19 -26 41 11 89 32 177 75 302 22 63 42
134 46 157 12 78 -13 123 -71 123 -48 0 -89 -50 -115 -142 -42 -151 -51 -178
-59 -178 -16 0 -19 40 -10 146 4 58 6 118 4 133 -2 14 -7 43 -10 64 -10 62
-61 93 -108 66z m64 -35 c20 -25 29 -121 19 -230 -10 -110 -1 -168 27 -178 25
-10 52 22 69 83 56 203 75 241 119 241 59 0 56 -62 -10 -263 -63 -188 -90
-366 -69 -445 9 -31 28 -22 32 13 8 66 84 125 161 125 58 0 89 -17 102 -57 10
-31 9 -37 -12 -60 -13 -13 -53 -39 -88 -56 -62 -31 -133 -93 -237 -209 -53
-59 -85 -69 -249 -75 -117 -4 -133 -2 -161 15 -35 22 -54 67 -73 166 -6 32
-33 111 -62 175 -78 178 -102 255 -103 338 -1 61 2 76 20 94 46 45 87 -8 119
-153 21 -101 43 -128 101 -128 32 0 44 4 44 15 0 8 -9 15 -20 15 -20 0 -21 4
-15 58 4 32 0 119 -9 201 -17 148 -13 232 10 252 33 27 57 -27 79 -176 8 -61
20 -124 26 -141 21 -65 71 -80 87 -25 4 14 6 76 4 136 -3 152 5 229 29 260 23
29 41 32 60 9z m1857 -649 c116 -28 191 -83 250 -187 48 -83 65 -164 60 -282
-3 -82 -9 -112 -29 -156 -26 -55 -130 -170 -154 -170 -7 0 -30 34 -51 76 -91
182 -278 354 -473 435 -42 17 -77 32 -78 33 -1 1 11 28 27 61 16 33 30 65 30
71 0 27 73 94 123 113 64 25 203 28 295 6z m393 -243 c77 -82 103 -124 136
-219 23 -68 26 -94 26 -203 1 -116 -2 -132 -33 -220 -33 -96 -77 -174 -134
-241 -30 -35 -50 -48 -52 -31 -3 35 -67 126 -129 183 -27 25 -45 54 -56 88
l-15 50 52 43 c61 51 107 114 136 189 42 108 22 333 -38 426 -8 12 -14 25 -14
28 0 16 68 -37 121 -93z m-1034 3 c353 -67 593 -262 736 -596 42 -99 42 -99
21 -99 -58 0 -193 110 -257 210 -94 148 -254 302 -385 373 -168 90 -421 105
-497 30 -21 -22 -25 -23 -25 -8 0 24 60 79 101 92 51 16 216 15 306 -2z m-40
-85 c111 -31 208 -87 318 -184 56 -49 173 -186 160 -186 -3 0 -29 16 -58 35
-29 19 -95 52 -147 74 -217 88 -325 89 -437 4 l-31 -24 -39 24 c-68 43 -101
84 -108 137 -8 62 8 99 55 122 50 25 193 24 287 -2z m-4667 -42 c0 -15 -34
-60 -91 -123 -50 -55 -142 -158 -204 -230 -63 -71 -136 -155 -164 -185 l-50
-55 -1 -319 0 -318 -27 7 c-16 4 -30 8 -32 11 -2 2 1 151 8 330 l12 326 237
255 c130 141 250 271 265 289 33 40 47 43 47 12z m4855 -220 c154 -50 260
-117 410 -258 87 -81 153 -120 204 -120 22 0 43 -11 71 -36 l40 -37 -75 -79
c-130 -135 -191 -251 -202 -378 -5 -64 11 -180 26 -180 4 0 42 33 83 73 90 87
149 119 235 125 58 4 64 2 92 -25 17 -17 33 -46 37 -67 13 -74 -37 -229 -100
-303 -31 -37 -85 -58 -129 -49 -17 4 -63 25 -101 48 -39 23 -83 41 -98 41 -38
0 -72 -34 -98 -99 -26 -62 -19 -61 -156 -39 -98 16 -152 37 -211 82 -41 30
-41 37 -3 53 44 18 102 78 139 144 32 55 34 56 52 40 10 -9 21 -25 24 -35 7
-21 35 -26 35 -6 0 20 -73 110 -109 134 -41 28 -71 29 -102 4 -31 -25 -19 -37
20 -22 24 10 34 10 60 -3 17 -9 31 -19 31 -22 0 -4 -14 -33 -32 -66 -53 -99
-157 -178 -194 -147 -8 7 -39 54 -69 105 -30 51 -68 102 -85 114 -16 12 -30
28 -30 36 0 22 -14 17 -46 -17 -55 -59 -114 -71 -198 -43 -102 35 -166 132
-152 232 15 107 95 137 236 89 50 -17 70 -29 85 -54 25 -40 50 -44 41 -7 -5
20 0 33 24 60 28 33 39 64 23 64 -5 0 -22 -17 -39 -37 l-31 -37 -49 23 c-61
29 -157 46 -206 37 -77 -14 -118 -75 -118 -176 l0 -45 -80 -2 -79 -1 19 49
c46 117 112 225 192 314 98 110 198 282 237 410 23 75 40 99 86 123 73 38 153
35 290 -10z m780 -538 c40 -79 31 -123 -51 -261 -33 -55 -62 -89 -89 -107 -22
-14 -66 -50 -97 -80 l-57 -54 -7 48 c-15 105 33 249 121 359 55 68 132 145
145 145 5 0 21 -22 35 -50z m-1810 -364 c76 -37 146 -43 228 -21 44 12 80 15
109 11 38 -6 47 -12 61 -40 30 -63 143 -126 226 -126 37 0 105 25 143 52 15
11 23 8 52 -21 18 -18 46 -56 61 -84 94 -177 221 -262 427 -288 51 -7 99 -15
106 -19 20 -10 -133 -77 -230 -101 -122 -29 -288 -36 -363 -14 -135 38 -232
123 -301 262 -35 72 -38 75 -66 69 -16 -3 -42 -15 -57 -25 -15 -11 -52 -30
-82 -41 -67 -27 -173 -24 -233 5 -60 29 -149 122 -185 192 -35 70 -75 202 -85
281 l-7 53 70 -59 c38 -32 95 -70 126 -86z m-4565 -269 c0 -7 -7 -131 -15
-277 -14 -258 -35 -642 -55 -1005 -5 -99 -16 -301 -25 -450 -8 -148 -16 -299
-17 -334 l-2 -64 -33 37 c-38 41 -37 31 -23 278 5 95 19 344 30 553 11 209 32
579 45 822 14 244 25 454 25 467 l0 25 35 -20 c19 -12 35 -26 35 -32z m5043
-113 c10 -20 20 -74 24 -123 5 -74 2 -100 -16 -160 -46 -150 -27 -186 93 -185
62 0 84 5 138 32 35 17 84 51 109 75 l46 44 124 6 c134 7 238 29 333 73 31 14
58 24 59 23 2 -2 0 -42 -3 -88 l-5 -83 -118 -49 c-165 -68 -409 -148 -625
-205 l-184 -48 -66 -92 c-37 -51 -70 -93 -73 -93 -3 -1 3 76 13 171 15 146 16
174 4 187 -61 70 -116 290 -101 407 l6 51 52 12 c29 6 77 27 107 45 30 19 58
35 61 35 3 1 13 -15 22 -35z m-173 -604 c0 -6 -27 -39 -60 -73 -155 -164 -352
-431 -463 -632 -91 -164 -106 -192 -142 -280 -53 -128 -74 -172 -75 -157 0 24
90 235 155 359 129 248 334 535 529 741 52 55 56 58 56 42z m915 -225 c67 -20
132 -60 110 -69 -9 -3 -14 -2 -10 3 11 19 -108 53 -202 59 -80 4 -102 2 -155
-18 -35 -13 -80 -34 -102 -47 -57 -36 -127 -104 -119 -116 3 -5 1 -7 -4 -4
-12 7 -49 -32 -98 -101 -17 -23 -36 -44 -43 -47 -21 -8 23 64 83 135 166 195
343 262 540 205z m-2953 -910 c39 -26 197 -199 319 -350 75 -93 103 -144 125
-230 21 -77 18 -121 -8 -139 -32 -23 -63 -20 -127 12 -76 37 -160 36 -249 -2
-55 -23 -66 -25 -89 -14 -37 18 -64 58 -70 105 -6 49 19 78 78 88 25 4 39 12
39 22 0 12 -8 14 -46 8 -26 -3 -52 -9 -59 -11 -19 -8 -45 24 -45 55 0 24 7 31
43 45 53 20 106 71 90 87 -7 7 -19 3 -39 -17 -37 -34 -91 -57 -119 -50 -13 3
-30 21 -39 40 -30 64 -19 103 41 140 34 20 43 30 35 38 -8 8 -25 3 -64 -21
-75 -47 -109 -51 -137 -15 -18 23 -22 38 -18 72 6 51 31 81 103 122 95 55 168
59 236 15z m-3987 -400 c456 -58 1127 -187 2045 -391 678 -151 769 -173 846
-209 193 -91 222 -160 231 -540 6 -243 -3 -329 -35 -358 -14 -13 -35 -14 -137
-6 -115 8 -280 19 -1115 74 -206 14 -438 29 -515 35 -77 6 -207 15 -290 20
-82 6 -319 21 -525 35 -206 14 -575 38 -820 55 -245 16 -469 30 -498 30 -45 0
-54 3 -61 23 -16 42 -35 363 -35 607 -1 225 1 251 22 323 29 101 50 141 105
203 48 53 120 94 209 119 75 21 321 13 573 -20z m3785 -46 c0 -7 -71 -84 -159
-173 -191 -194 -276 -287 -401 -439 -52 -64 -98 -116 -102 -116 -22 -2 -2 38
44 93 175 204 591 646 609 646 5 0 9 -5 9 -11z m2894 -81 c-4 -6 -2 -8 3 -5 6
4 20 -1 32 -11 20 -16 20 -19 5 -72 -20 -72 -22 -82 -23 -99 -1 -11 -4 -11
-16 -1 -8 7 -12 17 -8 23 3 5 2 7 -4 4 -13 -8 -76 57 -66 68 5 4 3 5 -4 2 -6
-4 -21 4 -32 19 l-21 26 40 42 c22 22 40 45 40 49 0 5 14 -1 30 -13 17 -12 27
-26 24 -32z m-2798 -164 c30 -64 104 -85 172 -50 l32 16 14 -34 c45 -108 97
-195 146 -248 50 -53 59 -58 97 -58 84 0 95 70 33 203 -22 47 -40 87 -40 90 0
3 19 7 43 9 23 3 50 8 60 12 14 7 17 3 17 -17 0 -32 40 -80 80 -97 21 -9 59
-11 116 -7 46 2 87 1 90 -4 3 -5 24 -19 47 -30 23 -12 43 -23 45 -24 2 -2 -8
-38 -21 -82 -35 -111 -50 -218 -45 -321 l4 -89 -137 -22 c-219 -35 -668 -155
-720 -192 -39 -28 -95 -111 -158 -236 -72 -145 -113 -247 -187 -471 -87 -262
-119 -350 -167 -457 -48 -107 -100 -202 -104 -189 -1 5 -18 90 -37 189 -20 99
-65 332 -101 518 l-66 338 21 26 c11 14 24 42 29 62 16 61 22 259 12 401 -6
101 -5 139 3 152 22 31 350 379 522 553 l167 170 9 -39 c4 -21 15 -53 24 -72z
m2640 70 c-3 -8 -2 -12 4 -9 11 7 77 -63 73 -77 -2 -4 1 -7 6 -5 10 2 71 -50
70 -61 0 -4 -28 -119 -63 -256 -43 -171 -67 -250 -77 -252 -8 -1 -57 -10 -109
-18 -52 -9 -120 -21 -150 -26 -175 -32 -398 -53 -575 -54 -182 -1 -192 0 -231
22 -51 30 -72 60 -47 68 10 3 36 14 58 24 22 10 51 21 65 25 50 16 351 160
445 215 95 55 290 200 396 294 59 52 110 92 114 88 5 -4 5 -1 0 7 -4 8 -2 17
6 22 20 12 22 11 15 -7z m-1646 -371 c0 -10 -7 -52 -17 -93 -11 -50 -16 -119
-15 -205 0 -125 12 -191 57 -331 4 -15 2 -23 -9 -27 -11 -4 -20 9 -36 51 -67
178 -72 379 -13 570 15 51 33 69 33 35z m2728 -450 l82 -6 93 -116 c133 -165
148 -187 139 -196 -4 -5 -2 -5 5 -1 14 8 36 -27 25 -39 -4 -5 -2 -5 4 -2 6 4
49 -46 100 -116 49 -67 94 -129 101 -137 13 -16 153 -213 248 -349 32 -47 54
-81 47 -77 -7 4 -12 3 -12 -2 0 -21 -160 -63 -246 -64 l-85 -2 -64 69 c-35 39
-62 76 -60 83 3 7 1 11 -4 8 -5 -4 -29 18 -53 46 -23 29 -53 64 -65 78 -12 14
-34 42 -50 62 -15 21 -67 88 -114 150 -47 62 -120 161 -162 219 l-77 107 -527
6 c-303 4 -735 3 -1013 -3 -267 -6 -524 -11 -572 -11 l-87 0 -42 -72 c-110
-188 -374 -598 -538 -833 -30 -44 -72 -105 -92 -135 -55 -83 -53 -82 -168 -74
-56 4 -101 9 -101 12 0 31 510 889 727 1224 74 114 38 101 348 123 485 33 857
51 1245 59 199 4 867 -3 968 -11z m-2824 -29 c10 -27 7 -32 -26 -37 -18 -2
-103 -21 -188 -41 -180 -43 -296 -69 -433 -96 -54 -11 -110 -26 -125 -34 -30
-16 -77 -64 -111 -113 -71 -103 -193 -405 -356 -873 -24 -69 -66 -190 -94
-270 -28 -80 -51 -146 -51 -148 0 -6 -65 10 -74 18 -5 5 26 79 72 172 64 129
103 228 186 473 111 330 157 444 239 593 60 108 105 165 144 180 53 20 422
121 520 142 80 17 150 29 284 49 4 1 10 -6 13 -15z m-5574 -264 c10 -6 13 -22
11 -49 -1 -22 0 -45 4 -51 3 -5 8 -45 11 -87 3 -43 9 -96 14 -118 8 -36 9 -34
5 20 -3 52 -3 55 6 25 5 -19 6 -66 3 -105 -3 -38 -3 -67 1 -63 13 12 34 -12
28 -29 -6 -14 -8 -14 -15 3 -6 13 -7 8 -4 -16 3 -19 10 -87 17 -150 7 -67 17
-122 25 -131 8 -8 14 -32 14 -51 0 -20 5 -38 11 -40 6 -2 7 -11 3 -23 -8 -19
-9 -18 -15 5 -4 14 -7 43 -8 64 -1 22 -4 37 -7 33 -3 -3 -3 -38 1 -78 4 -39
10 -67 14 -61 3 5 6 -22 6 -61 1 -40 4 -81 9 -92 4 -11 10 -49 12 -85 3 -36
15 -146 29 -245 13 -99 29 -227 35 -283 13 -118 17 -135 34 -125 6 3 6 1 -2
-8 -14 -16 -16 -55 -2 -64 7 -4 7 -12 0 -25 -8 -14 -16 -17 -37 -11 l-27 7
-48 355 c-26 195 -81 607 -122 917 -42 309 -76 578 -76 597 0 32 3 35 28 35
15 0 34 -4 42 -10z m785 -56 c193 -14 411 -29 485 -34 459 -31 615 -43 618
-45 1 -1 -36 -150 -83 -331 -48 -181 -113 -435 -146 -564 -71 -277 -120 -465
-122 -466 -1 -1 -42 -18 -91 -37 -105 -43 -206 -101 -282 -163 -30 -25 -59
-42 -65 -39 -5 4 -8 1 -7 -6 2 -7 -4 -13 -12 -14 -8 -1 -14 -6 -13 -12 2 -12
-45 -59 -55 -55 -4 1 -7 -4 -7 -10 -1 -7 -7 -12 -14 -10 -7 1 -10 -2 -6 -8 3
-5 -8 -27 -25 -49 -23 -28 -38 -38 -53 -36 -12 2 -89 6 -172 9 -82 4 -186 9
-231 12 l-81 6 -11 177 c-7 97 -32 498 -57 891 -24 393 -47 739 -50 769 l-5
53 67 -6 c38 -4 226 -18 418 -32z m4521 -602 c8 -5 -31 -82 -118 -235 -72
-125 -128 -230 -125 -233 3 -4 38 -10 77 -14 39 -4 73 -10 75 -12 2 -2 -98
-191 -223 -421 l-227 -417 -112 0 -113 0 0 69 0 69 38 7 c87 16 135 91 114
177 -11 41 -10 44 19 74 36 37 48 77 38 123 -7 32 -1 44 93 180 205 297 389
581 394 611 5 24 11 30 33 30 14 0 31 -4 37 -8z m2041 -623 c157 -21 316 -90
433 -188 115 -96 186 -186 243 -308 95 -203 94 -474 -3 -680 -101 -216 -313
-395 -551 -464 -94 -27 -298 -37 -405 -19 -274 44 -514 219 -637 465 -121 240
-109 544 29 779 54 91 179 222 268 281 176 114 406 164 623 134z m-3139 -123
c81 -41 189 -57 357 -55 l150 2 3 -38 c3 -31 -2 -43 -29 -71 -26 -27 -41 -34
-72 -34 -31 0 -38 -3 -35 -17 2 -10 14 -20 28 -21 14 -2 31 -9 38 -14 17 -15
15 -89 -4 -117 -31 -43 -70 -51 -261 -51 l-178 0 -39 208 c-21 114 -41 213
-44 220 -7 20 34 14 86 -12z m-3731 -577 c194 -7 353 -16 353 -20 0 -3 -7 -12
-15 -19 -19 -16 -94 -139 -128 -211 -30 -64 -67 -191 -67 -231 0 -28 -12 -41
-45 -45 -107 -12 -270 -23 -357 -23 -93 0 -109 2 -117 18 -20 38 -91 415 -91
486 0 62 7 69 64 63 28 -3 210 -12 403 -18z m1535 -170 c171 -36 331 -179 387
-345 65 -196 17 -400 -128 -545 -162 -162 -405 -203 -610 -102 -80 39 -200
161 -239 243 -68 145 -70 303 -6 448 61 139 214 267 360 301 56 13 174 13 236
0z m3159 -234 c4 -16 9 -52 12 -79 l5 -49 -187 7 c-192 6 -882 27 -1566 47
-214 6 -393 14 -396 17 -4 4 -9 26 -13 50 l-6 42 1072 -2 1072 -3 7 -30z
m-3926 -1869 c24 -10 33 -20 29 -30 -5 -12 -10 -13 -39 0 -42 17 -56 18 -79 1
-27 -20 -10 -42 49 -61 84 -26 106 -71 61 -123 -22 -25 -30 -28 -90 -28 -70 0
-80 4 -71 27 5 13 12 14 40 5 50 -15 99 1 103 34 3 22 -3 28 -30 38 -66 24
-103 46 -106 64 -14 70 53 106 133 73z m587 -46 l3 -61 35 30 c19 17 44 30 55
31 16 0 12 -7 -20 -40 l-39 -40 42 -60 c40 -57 41 -60 20 -60 -16 0 -32 14
-53 45 -16 24 -33 45 -37 45 -5 0 -8 -20 -8 -45 0 -38 -3 -45 -20 -45 -19 0
-20 7 -20 130 0 122 1 130 20 130 16 0 19 -8 22 -60z m-1353 -26 c12 -15 21
-40 21 -55 0 -29 0 -29 -65 -29 -72 0 -83 -12 -44 -51 17 -17 30 -20 65 -16
24 2 44 1 44 -3 0 -22 -85 -27 -111 -7 -24 18 -39 52 -39 87 0 86 83 133 129
74z m456 3 c20 -16 28 -35 32 -69 5 -42 3 -50 -25 -78 -41 -40 -83 -41 -123
-1 -84 85 27 226 116 148z m630 -2 c20 -19 25 -34 25 -75 0 -63 -30 -100 -82
-100 -67 0 -107 62 -87 135 18 66 97 88 144 40z"/>
<path d="M7497 9445 c-44 -45 -122 -204 -108 -218 8 -8 19 -3 38 15 52 48 95
68 150 68 28 0 54 4 57 9 9 14 -25 115 -47 139 -29 31 -50 28 -90 -13z"/>
<path d="M7853 9290 c-33 -20 -57 -53 -46 -64 3 -3 17 -6 30 -6 34 0 79 -49
94 -101 6 -24 13 -82 14 -129 1 -65 5 -85 16 -85 22 0 50 162 47 271 -2 74 -7
96 -22 113 -25 27 -89 28 -133 1z"/>
<path d="M7438 9133 c-41 -47 -73 -161 -62 -220 7 -39 17 -47 48 -39 48 12
104 194 78 250 -13 30 -42 34 -64 9z"/>
<path d="M7756 9015 c-34 -32 -75 -119 -84 -182 -9 -58 -6 -79 14 -87 27 -11
64 25 99 98 42 88 54 156 30 179 -22 22 -27 22 -59 -8z"/>
<path d="M720 4543 c-39 -35 -51 -99 -26 -138 9 -14 14 -31 10 -37 -4 -6 -3
-8 3 -5 6 4 24 0 39 -8 24 -12 96 -15 441 -15 362 0 417 2 447 16 73 36 86
128 24 186 l-30 28 -439 0 -439 0 -30 -27z"/>
<path d="M1594 4222 c5 -9 -109 -13 -436 -15 -244 -2 -448 -5 -455 -7 -7 -2
-10 -7 -8 -11 3 -3 -2 -12 -10 -19 -24 -20 -30 -78 -11 -117 30 -63 37 -64
511 -61 l423 3 26 24 c39 36 50 82 32 125 -8 20 -26 41 -40 47 -14 7 -23 15
-21 20 3 4 0 11 -6 15 -8 4 -9 3 -5 -4z"/>
<path d="M736 3858 c-38 -35 -39 -86 -1 -123 l24 -25 391 0 c400 0 418 2 447
39 24 31 11 90 -26 118 -12 9 -117 12 -413 13 l-397 0 -25 -22z"/>
<path d="M7205 3232 c-130 -34 -213 -82 -306 -175 -92 -93 -146 -200 -169
-338 -62 -366 247 -709 640 -709 181 0 333 64 464 193 88 88 130 159 162 272
24 85 22 239 -5 329 -57 191 -226 357 -430 423 -75 24 -272 26 -356 5z m335
-33 c107 -29 194 -81 275 -163 120 -121 169 -243 168 -411 -2 -197 -84 -354
-247 -469 -122 -87 -251 -123 -410 -113 -117 6 -205 35 -297 95 -150 98 -240
233 -267 401 -14 85 -14 103 0 186 22 131 64 211 163 310 90 91 166 136 277
165 102 26 241 26 338 -1z"/>
<path d="M1943 2451 c-97 -34 -163 -93 -213 -191 -35 -68 -40 -195 -9 -275 31
-83 122 -174 204 -205 84 -31 207 -25 281 12 67 35 128 99 166 175 29 59 30
67 26 160 -3 92 -6 102 -41 160 -69 114 -163 171 -290 179 -53 3 -86 -1 -124
-15z m198 -27 c82 -23 159 -87 198 -165 27 -53 31 -73 31 -139 0 -110 -21
-162 -94 -236 -78 -77 -134 -99 -245 -92 -91 6 -159 36 -214 97 -58 64 -80
116 -85 202 -5 94 13 155 65 221 88 109 211 149 344 112z"/>
<path d="M986 424 c-49 -49 -21 -144 42 -144 33 0 45 8 61 37 17 33 13 67 -10
97 -24 30 -69 35 -93 10z"/>
</g>
</svg>
