<?xml version="1.0" standalone="no"?>
<!DOCTYPE svg PUBLIC "-//W3C//DTD SVG 20010904//EN"
 "http://www.w3.org/TR/2001/REC-SVG-20010904/DTD/svg10.dtd">
<svg version="1.0" xmlns="http://www.w3.org/2000/svg"
 width="920.000000pt" height="914.000000pt" viewBox="0 0 920.000000 914.000000"
 preserveAspectRatio="xMidYMid meet">
<metadata>
Created by potrace 1.16, written by Peter Selinger 2001-2019
</metadata>
<g transform="translate(0.000000,914.000000) scale(0.100000,-0.100000)"
fill="#000000" stroke="none">
<path d="M4498 8665 c-102 -17 -202 -50 -260 -85 l-47 -29 -43 18 c-40 17
-118 34 -118 26 0 -3 -230 -1542 -340 -2278 -33 -219 -60 -402 -60 -407 0 -16
-22 -11 -56 12 -34 24 -68 73 -60 86 5 8 7 18 21 112 4 25 9 52 10 61 2 9 6
40 10 69 4 29 8 60 10 69 1 9 6 36 9 61 3 25 8 54 10 66 2 12 7 45 11 74 4 29
9 62 11 74 2 11 6 38 9 61 3 22 8 51 10 65 2 14 7 43 10 65 3 23 7 50 9 60 2
11 7 45 11 75 4 30 9 64 11 75 2 10 6 37 9 60 4 22 8 51 10 65 2 14 6 43 10
65 3 23 7 50 9 61 2 12 7 45 11 74 4 29 8 60 10 69 1 9 6 41 10 71 4 30 9 64
11 75 2 11 7 40 10 65 3 25 7 52 9 60 2 8 7 38 11 65 3 28 7 57 9 65 1 8 6 40
10 70 4 30 9 64 11 75 2 10 6 37 9 60 4 22 8 51 10 65 2 14 6 43 10 65 3 23 7
50 9 61 2 12 7 45 11 74 4 29 9 62 11 74 2 11 6 38 9 61 4 22 8 51 10 65 2 14
7 45 10 70 4 24 9 48 11 52 8 12 -11 9 -28 -4 -11 -10 -31 -124 -77 -433 -34
-231 -96 -644 -137 -917 -41 -274 -74 -500 -74 -502 0 -2 -57 -7 -127 -10
-530 -26 -731 -40 -1048 -71 -381 -39 -560 -70 -755 -135 -352 -115 -582 -311
-679 -577 -16 -44 -34 -106 -40 -139 -16 -86 -30 -280 -32 -429 -1 -116 -14
-297 -18 -252 0 9 -10 26 -21 37 -18 18 -33 20 -127 20 -125 0 -204 -17 -399
-84 -233 -80 -263 -99 -317 -200 -21 -39 -22 -53 -22 -267 l0 -226 30 -49 c41
-66 148 -153 253 -207 146 -75 180 -80 326 -53 78 15 109 16 95 1 -3 -2 -41
-10 -84 -17 l-80 -14 -3 -87 -3 -87 30 -6 c27 -6 30 -11 36 -58 7 -51 42 -204
51 -218 3 -4 26 6 51 22 44 28 62 33 49 12 -3 -5 -35 -27 -71 -48 -73 -44 -72
-39 -25 -140 25 -56 30 -61 56 -57 27 3 33 -3 77 -74 27 -43 63 -95 81 -116
l32 -38 34 47 c19 26 36 42 38 36 2 -6 -18 -41 -44 -78 l-47 -66 61 -61 c60
-60 61 -60 86 -44 25 17 27 16 86 -27 34 -25 86 -59 117 -77 62 -36 67 -34 78
38 3 23 10 43 16 43 12 0 12 -7 -8 -95 -10 -45 -13 -79 -7 -84 5 -5 40 -21 78
-36 l70 -27 17 24 18 25 73 -19 c40 -10 103 -21 139 -24 l66 -7 -8 54 c-8 49
-6 69 6 58 2 -3 10 -41 17 -84 l14 -80 87 -3 87 -3 6 30 c5 26 11 30 53 36 48
6 211 44 223 52 4 2 -6 25 -22 51 -16 25 -27 48 -25 51 9 8 31 -19 65 -78 39
-68 33 -67 137 -20 59 26 62 30 58 56 -5 26 1 32 77 81 46 29 98 65 116 80
l33 28 -45 33 c-26 18 -44 37 -41 42 3 4 38 -14 76 -43 l71 -51 59 59 c32 32
59 63 59 68 0 5 -7 17 -16 27 -14 16 -12 22 30 79 25 33 59 86 77 117 35 62
33 67 -33 78 -21 4 -40 11 -44 16 -8 13 13 11 96 -7 40 -9 75 -13 79 -8 5 5
21 40 36 78 l27 70 -24 17 -25 18 19 73 c10 40 21 104 25 142 6 64 5 68 -13
63 -47 -13 -94 -17 -94 -8 0 8 104 31 144 31 9 0 19 7 22 15 4 10 19 15 43 15
l37 0 -7 -77 c-4 -43 -13 -104 -20 -136 -9 -44 -9 -67 -1 -96 13 -41 55 -87
70 -77 27 16 62 211 62 341 l0 45 148 0 148 0 12 -44 c15 -58 66 -109 123
-125 31 -8 135 -11 352 -9 l309 3 -1 156 c-1 86 1 186 5 223 l7 66 68 0 69 0
0 -225 0 -225 228 0 c129 0 243 5 265 11 52 14 111 69 125 117 7 22 12 78 12
126 l0 86 120 0 119 0 11 -42 c6 -24 16 -60 21 -82 6 -21 14 -49 19 -62 l9
-24 63 39 c34 22 66 38 70 35 14 -9 1 -20 -103 -85 -56 -35 -103 -69 -106 -75
-2 -6 14 -51 35 -100 43 -96 45 -98 118 -80 31 7 33 5 69 -56 45 -75 166 -238
176 -238 4 0 27 27 50 60 27 39 46 57 52 51 6 -6 -18 -48 -67 -117 l-77 -107
77 -78 78 -78 45 34 46 33 30 -24 c93 -77 272 -182 285 -167 4 4 13 36 20 71
8 39 18 62 26 62 17 0 19 13 -16 -131 -27 -115 -28 -125 -13 -137 18 -13 166
-72 182 -72 6 0 20 18 31 39 11 22 23 42 28 45 5 3 44 -4 88 -15 72 -19 275
-51 282 -44 1 1 -2 35 -9 74 -10 70 -6 99 10 73 4 -7 16 -66 26 -132 18 -118
18 -119 48 -126 16 -3 67 -3 113 1 79 6 84 8 84 30 0 12 3 36 6 52 6 29 10 31
62 37 65 8 269 54 294 67 15 8 13 16 -22 71 -21 34 -36 66 -33 72 8 12 23 -8
96 -124 66 -105 55 -102 181 -45 l78 36 -7 32 c-4 18 -9 41 -12 53 -4 17 7 28
59 58 74 45 238 165 238 175 0 4 -27 27 -60 51 -35 25 -57 47 -51 53 5 5 54
-24 116 -68 l108 -77 78 78 79 79 -35 44 -35 44 34 41 c41 50 115 165 146 225
26 51 24 53 -61 71 -39 8 -59 18 -59 27 0 9 6 12 18 9 9 -3 67 -17 127 -31
102 -23 111 -23 123 -8 12 17 72 166 72 181 0 5 -19 19 -42 32 -24 13 -44 24
-46 25 -1 1 7 37 18 81 17 67 52 285 46 291 -1 1 -34 -3 -74 -9 -66 -10 -94
-7 -80 8 3 3 62 15 131 26 124 21 126 21 132 50 4 16 4 67 0 113 l-7 85 -32 0
c-55 0 -76 10 -76 37 0 13 -9 71 -21 128 l-21 104 98 179 98 180 31 -24 c60
-45 183 -72 201 -43 4 7 -21 66 -54 133 -130 257 -303 480 -517 664 -328 282
-724 457 -1160 513 -116 14 -395 14 -505 0 -488 -66 -900 -261 -1243 -591
-227 -217 -418 -507 -526 -795 -16 -44 -30 -70 -30 -58 -1 13 10 53 24 89 281
746 928 1270 1716 1390 140 22 451 24 589 5 689 -94 1272 -490 1612 -1096 25
-44 58 -109 73 -145 16 -36 33 -69 37 -75 19 -20 -35 103 -87 202 -249 471
-676 845 -1172 1025 l-93 33 0 67 0 67 43 -19 c50 -22 168 -45 189 -37 23 8
38 86 37 194 -1 127 -15 177 -51 181 -41 5 -177 -35 -237 -69 -83 -47 -89 -66
-83 -224 l5 -134 -42 11 c-22 6 -41 14 -41 18 0 6 -49 331 -237 1563 l-47 307
-1452 0 -1451 0 -13 -87 c-16 -116 -29 -137 -30 -50 0 53 -3 67 -15 67 -9 0
-15 -9 -15 -25 0 -14 -6 -25 -14 -25 -19 0 -63 -47 -68 -73 -2 -12 -1 -89 4
-171 l8 -148 -85 -180 c-47 -99 -85 -186 -85 -192 0 -7 25 -104 56 -217 l55
-204 -22 -183 -22 -183 -126 7 c-69 4 -128 8 -130 10 -4 4 235 1623 246 1664
5 20 11 20 1629 20 893 0 1624 4 1624 8 0 24 -68 97 -120 131 -118 77 -24 72
-1530 69 l-1345 -3 -78 -22 c-43 -12 -98 -31 -123 -43 -63 -27 -79 -13 -18 18
77 39 152 62 254 77 144 22 2639 22 2723 0 115 -30 201 -88 248 -169 17 -28
27 -40 24 -26 -26 93 -135 180 -272 215 -49 13 -233 15 -1358 14 -1015 -1
-1317 -4 -1377 -14z m1553 -487 c0 -68 2 -139 4 -158 2 -19 6 -190 9 -380 6
-344 12 -584 21 -840 l5 -135 -70 -43 c-175 -108 -375 -274 -503 -417 -101
-114 -243 -322 -302 -443 l-39 -82 -446 0 c-246 0 -449 2 -451 4 -13 14 24
920 46 1111 16 135 71 494 77 500 10 10 53 -23 56 -43 2 -12 9 -22 17 -22 14
0 14 -13 -5 305 -9 149 -8 152 37 445 25 162 47 301 49 308 3 9 161 12 749 12
l745 0 1 -122z m737 112 l512 0 -1 -22 c-1 -17 -2 -19 -6 -5 -4 15 -20 17
-144 17 -109 0 -139 -3 -133 -12 6 -10 4 -10 -7 0 -23 21 -33 13 -13 -10 17
-21 16 -21 -9 1 -33 29 -36 17 -4 -18 l22 -26 -27 24 c-34 29 -37 17 -5 -18
19 -22 19 -23 1 -8 -11 9 -24 14 -29 10 -4 -5 -6 -3 -2 2 3 6 -1 21 -9 35
l-14 25 4 -32 c5 -40 14 -55 28 -47 7 4 8 2 4 -5 -6 -9 -11 -9 -22 0 -13 10
-14 8 -10 -15 3 -14 1 -24 -4 -21 -5 3 -12 1 -15 -5 -9 -15 14 -41 29 -33 7 4
6 1 -1 -9 -7 -8 -11 -18 -8 -21 3 -4 2 -5 -1 -3 -3 2 -4 6 -2 9 1 3 -5 14 -15
25 -12 13 -16 26 -11 34 10 16 16 48 9 48 -3 0 -11 -15 -19 -32 -11 -29 -11
-35 2 -50 8 -10 12 -18 7 -18 -4 0 -2 -6 4 -14 8 -10 9 -16 1 -21 -6 -4 -9 -2
-8 3 2 6 -1 10 -7 11 -5 1 -10 -7 -10 -16 1 -10 7 -17 14 -15 7 1 9 -2 6 -9
-5 -8 -10 -8 -18 0 -21 21 -30 11 -11 -11 10 -12 14 -18 7 -15 -6 4 -13 4 -16
0 -2 -5 -2 -3 -1 4 2 6 -3 17 -11 23 -11 9 -13 7 -11 -12 3 -32 15 -50 28 -42
7 4 8 2 4 -5 -6 -9 -11 -9 -21 -1 -10 8 -13 4 -13 -17 0 -35 -5 -54 -17 -73
-5 -8 -10 -18 -10 -22 0 -3 -3 -9 -7 -13 -12 -12 -3 22 10 38 8 9 9 18 4 21
-12 7 -45 -60 -37 -73 3 -5 1 -12 -5 -16 -6 -4 -7 -12 -4 -18 4 -7 4 -9 -1 -5
-4 4 -14 0 -21 -10 -10 -14 -10 -20 2 -34 11 -11 12 -18 4 -23 -5 -3 -8 -11
-4 -16 3 -5 10 -6 16 -3 7 4 8 2 4 -5 -6 -9 -11 -9 -21 -1 -14 12 -40 -11 -27
-25 4 -5 2 -5 -4 -2 -14 8 -47 -50 -40 -69 3 -9 1 -12 -4 -9 -6 3 -10 10 -10
15 0 16 -20 63 -25 58 -7 -7 26 -99 34 -94 4 3 7 -8 6 -24 0 -15 -3 -26 -8
-23 -4 2 -6 12 -5 21 2 9 -2 16 -9 15 -8 -2 -10 4 -6 14 4 10 2 14 -4 10 -18
-11 -21 -44 -8 -71 11 -21 11 -27 -6 -42 -10 -9 -16 -22 -12 -28 4 -6 -1 -5
-10 2 -9 8 -19 22 -22 33 -4 11 -11 17 -16 14 -5 -4 -2 -16 6 -28 8 -12 13
-32 12 -44 l-1 -23 -23 22 c-13 12 -23 17 -23 11 0 -6 7 -16 15 -23 9 -7 13
-15 10 -18 -3 -3 3 -15 12 -26 18 -21 18 -21 -4 -2 -25 21 -31 12 -9 -13 11
-12 12 -21 5 -31 -9 -13 -10 -12 -6 2 8 24 -17 42 -32 24 -7 -9 -8 -17 -2 -20
5 -3 12 -1 14 4 3 6 4 5 3 -2 -2 -7 4 -22 13 -33 16 -20 16 -20 -6 -1 -24 20
-32 10 -10 -14 10 -12 9 -12 -4 -2 -9 6 -19 8 -24 4 -4 -4 -3 3 4 15 7 15 8
24 1 28 -6 4 -8 10 -5 15 3 5 0 12 -6 15 -7 5 -9 -3 -7 -23 2 -17 -1 -31 -7
-31 -12 1 -24 -33 -17 -45 3 -5 9 -1 13 10 6 15 8 15 8 3 1 -9 -6 -22 -14 -29
-8 -7 -15 -9 -15 -6 0 4 -5 4 -11 0 -8 -4 -7 -9 2 -15 9 -5 23 0 39 14 l25 22
-21 -25 c-12 -14 -20 -33 -19 -43 2 -9 -1 -15 -6 -11 -8 5 -14 -17 -10 -39 1
-5 -4 -5 -10 -1 -8 5 -10 2 -7 -8 6 -14 -25 -78 -37 -78 -2 0 -11 12 -19 28
-18 32 -21 14 -5 -22 7 -14 16 -23 22 -19 6 3 5 -2 -1 -13 -6 -11 -7 -25 -2
-34 5 -9 5 -22 0 -30 -7 -11 -9 -10 -10 8 -1 65 0 64 -15 52 -8 -7 -12 -17 -8
-24 4 -6 8 -18 8 -26 0 -8 4 -20 8 -27 4 -6 2 -15 -3 -18 -8 -5 -5 -14 7 -28
17 -21 16 -21 -8 1 -38 33 -47 27 -13 -10 16 -18 20 -25 8 -15 -11 9 -24 14
-29 10 -4 -5 -5 -3 -2 3 4 7 -1 18 -10 25 -14 12 -15 11 -9 -8 4 -12 2 -24 -3
-27 -6 -4 -9 -12 -7 -19 1 -7 1 -9 -1 -4 -3 4 -9 4 -14 1 -6 -3 -5 -12 3 -22
12 -16 11 -16 -6 -2 -18 14 -19 13 -13 -3 4 -10 3 -16 -2 -13 -5 3 -14 -1 -21
-9 -7 -8 -16 -12 -21 -9 -5 3 -9 -1 -9 -8 0 -10 -3 -9 -9 1 -6 10 -5 23 2 35
6 12 10 30 9 41 l-2 20 9 -20 10 -20 1 20 c2 11 2 24 1 28 -1 5 4 5 10 1 8 -5
9 -3 4 6 -5 8 -4 11 3 6 7 -4 10 1 7 14 -2 11 1 19 8 17 7 -1 11 8 10 23 -2
23 -2 23 7 5 9 -18 10 -18 6 5 -5 33 8 76 22 73 7 -2 9 5 6 15 -5 14 -4 15 5
2 9 -12 10 -9 6 15 -4 25 -4 27 5 10 9 -17 9 -15 5 10 -4 23 -3 27 5 15 9 -12
10 -12 7 5 -16 68 -17 76 -7 70 5 -3 10 -20 10 -37 0 -42 8 -31 12 14 1 20 5
35 9 32 5 -2 6 5 4 17 -3 17 -2 19 10 9 12 -10 13 -8 10 9 -2 11 1 23 6 26 14
9 40 77 41 108 1 16 4 23 8 17 8 -12 44 67 41 90 -2 13 -1 13 10 0 9 -13 10
-13 6 2 -3 9 -3 19 1 23 7 7 8 10 11 43 2 15 4 15 12 -3 9 -19 9 -18 5 3 -2
12 0 20 4 17 5 -3 7 4 5 15 -2 11 0 18 4 15 5 -2 9 1 8 8 0 6 1 23 2 37 l3 25
9 -25 c7 -21 8 -19 4 10 -4 26 -2 31 5 20 10 -13 11 -13 9 0 -1 8 1 23 6 33 6
15 10 16 17 5 5 -8 7 -2 3 17 -4 25 -4 26 5 10 8 -16 9 -13 5 16 -3 28 0 41
16 55 11 10 17 24 15 31 -3 7 0 15 6 19 7 5 8 2 3 -6 -5 -8 -4 -11 2 -7 6 4 9
19 7 34 l-4 28 10 -25 c9 -22 9 -21 5 10 -4 26 -2 31 5 20 8 -11 9 -8 5 15 -4
25 -4 27 5 10 8 -16 9 -13 5 15 -4 26 -3 30 4 15 8 -17 10 -13 17 25 8 44 8
44 16 15 l7 -30 -3 33 c-1 18 1 35 6 38 5 3 5 10 2 16 -4 7 -2 8 5 4 6 -4 11
-4 10 1 -1 4 0 19 1 33 l2 25 8 -25 c7 -21 8 -22 10 -5 3 32 9 57 24 100 12
31 15 35 16 16 0 -31 9 -22 12 12 2 25 18 40 18 16 0 -5 5 -7 11 -4 5 4 8 12
6 18 -4 13 -46 17 -54 4 -3 -5 -9 -3 -14 4 -6 10 -9 10 -9 2 0 -7 -7 -10 -17
-7 -12 4 -14 3 -6 -3 7 -5 9 -14 4 -22 -7 -10 -10 -8 -16 9 l-7 22 -16 -24
c-9 -12 -16 -38 -15 -56 1 -28 -1 -31 -13 -21 -10 8 -11 15 -4 24 8 9 8 15 0
20 -8 5 -5 14 9 29 16 17 18 23 7 23 -8 0 -14 -5 -13 -11 1 -6 -3 -10 -10 -9
-12 2 -12 -14 0 -33 7 -11 -25 -48 -34 -39 -8 7 -4 -79 4 -92 4 -6 3 -14 -2
-17 -5 -4 -12 0 -15 6 -3 7 -4 6 -3 -4 1 -9 -2 -17 -8 -17 -11 -1 -14 18 -6
34 11 19 9 32 -5 32 -10 0 -11 -4 -3 -13 6 -8 6 -14 0 -18 -12 -8 -9 -30 9
-51 8 -9 15 -22 16 -29 1 -6 5 -20 9 -31 6 -16 3 -15 -13 5 -11 13 -19 27 -16
31 2 3 -5 14 -16 24 -11 10 -17 22 -13 28 4 6 1 7 -6 3 -9 -6 -8 -13 5 -27 23
-25 26 -45 9 -59 -8 -6 -11 -18 -8 -26 3 -8 0 -21 -7 -29 -6 -8 -9 -19 -6 -24
4 -5 2 -12 -4 -16 -9 -6 -14 8 -11 28 1 5 -3 6 -9 2 -7 -4 -7 -12 0 -26 6 -10
8 -19 5 -19 -3 0 -8 0 -12 0 -5 0 -8 4 -8 9 0 5 -3 12 -7 16 -3 4 -5 -1 -3
-12 2 -10 4 -18 5 -18 1 0 3 -11 6 -24 4 -20 2 -22 -11 -11 -8 7 -13 16 -10
19 2 4 -3 8 -11 8 -10 0 -5 -10 15 -31 25 -27 28 -33 17 -48 -7 -10 -16 -15
-19 -11 -4 3 -2 12 3 18 7 8 4 17 -9 29 -13 12 -21 14 -26 6 -3 -6 -1 -9 6 -8
7 2 14 -6 14 -17 1 -11 4 -27 8 -35 3 -8 5 -22 6 -30 0 -8 2 -35 5 -60 5 -44
4 -44 -5 -10 -6 19 -15 43 -20 52 -5 11 -5 19 1 23 6 4 8 11 4 16 -9 15 -23 0
-19 -21 2 -10 -3 -24 -11 -30 -7 -7 -12 -16 -9 -20 3 -4 -2 -13 -9 -20 -13
-10 -14 -26 -4 -55 1 -5 -1 -11 -7 -12 -5 -2 -11 2 -11 7 -1 6 -3 12 -4 15 -8
15 -5 32 9 48 13 15 13 18 1 15 -8 -2 -14 2 -15 9 0 6 -3 14 -7 18 -8 9 -5
-16 5 -32 4 -6 3 -14 -1 -17 -5 -3 -8 -18 -7 -33 2 -36 -12 -66 -28 -57 -7 4
-4 -2 6 -13 15 -17 16 -22 3 -32 -8 -7 -13 -21 -11 -31 2 -11 0 -22 -6 -25 -5
-4 -10 -1 -10 4 -1 6 -2 17 -3 24 -1 6 4 19 11 28 11 14 11 18 -2 29 -8 7 -12
17 -8 23 4 6 1 7 -6 3 -9 -6 -8 -12 4 -26 13 -15 14 -19 1 -29 -13 -11 -14
-20 -4 -61 1 -8 -4 -14 -12 -15 -8 0 -15 -6 -15 -12 0 -7 -4 -13 -10 -13 -5 0
-10 4 -10 9 0 6 -7 16 -15 23 -12 11 -12 11 -1 -4 7 -10 10 -18 6 -18 -4 0 -1
-7 6 -16 7 -9 14 -21 15 -28 1 -6 3 -16 5 -23 2 -6 0 -11 -6 -12 -5 -1 -11 4
-11 9 -1 6 -3 12 -4 15 -1 3 -3 9 -4 14 0 5 -4 12 -8 16 -5 6 -3 -25 2 -32 2
-2 3 -7 4 -12 0 -5 4 -12 8 -16 9 -10 -2 -36 -13 -29 -5 3 -6 10 -3 16 5 7 2
8 -5 4 -9 -6 -9 -12 3 -25 9 -10 13 -20 10 -24 -4 -3 -15 4 -26 16 l-19 22 17
-27 c9 -16 14 -29 10 -29 -3 -1 -10 -3 -16 -4 -5 -1 -13 -3 -16 -4 -4 0 -2 -7
3 -13 7 -11 10 -73 3 -73 -2 0 -7 -20 -15 -60 -10 -52 -16 -65 -26 -59 -5 3
-6 11 -2 17 4 7 8 21 8 32 0 11 4 26 8 33 5 6 6 16 2 21 -3 5 -1 12 4 15 10 7
9 61 -1 71 -3 4 -4 -10 -2 -30 3 -33 1 -35 -13 -23 -14 11 -16 11 -8 -2 5 -8
11 -23 12 -34 3 -16 1 -17 -12 -6 -8 7 -12 17 -8 23 3 6 1 7 -6 3 -9 -6 -9
-11 1 -23 6 -8 13 -24 15 -35 3 -17 1 -19 -12 -8 -8 7 -13 16 -10 20 3 5 1 11
-4 14 -12 8 -8 -18 5 -35 9 -13 10 -20 5 -46 -1 -5 -5 -2 -10 6 -6 9 -9 -2 -8
-30 0 -24 3 -48 7 -54 11 -14 -7 -55 -22 -51 -7 1 -10 1 -5 -1 4 -3 7 -12 7
-21 0 -12 -3 -13 -8 -5 -4 7 -8 -17 -8 -53 -1 -36 -6 -70 -11 -75 -6 -6 -14
176 -21 493 -7 277 -15 537 -17 578 -2 41 -7 160 -11 264 l-7 189 69 -6 c38
-4 300 -7 582 -7z m-63 -257 c4 -28 -7 -71 -42 -163 -4 -8 -5 -19 -4 -24 1 -5
-7 -19 -19 -31 -12 -12 -20 -26 -19 -31 3 -14 -20 -64 -43 -93 -11 -14 -18
-19 -16 -11 3 8 2 22 -3 31 -5 10 -1 30 10 53 11 20 16 38 12 41 -14 8 -5 45
17 68 12 13 19 26 16 30 -4 4 -1 13 6 22 7 8 10 21 7 29 -10 25 17 38 31 15
15 -23 37 -15 27 10 -4 9 -8 21 -9 28 -1 7 -5 16 -9 19 -4 4 0 16 10 26 19 22
20 21 28 -19z m-2401 -598 c-12 -77 -23 -142 -24 -145 -3 -7 -49 172 -50 191
0 9 19 56 42 105 l42 89 6 -50 c3 -29 -4 -109 -16 -190z m2142 8 c-4 -84 -24
-154 -46 -168 -6 -4 -8 -11 -4 -16 3 -5 0 -8 -7 -7 -7 2 -14 -3 -15 -9 -1 -7
-3 -16 -4 -20 -1 -5 -2 -12 -1 -17 1 -5 -4 -4 -12 2 -19 16 -27 5 -21 -28 4
-17 -3 -46 -19 -81 -39 -87 -49 -117 -42 -129 3 -6 3 -9 -2 -8 -4 2 -8 0 -8
-3 0 -4 -8 -16 -18 -26 -9 -11 -14 -23 -10 -27 5 -4 1 -6 -7 -4 -9 2 -15 -5
-15 -17 -1 -11 -6 -29 -12 -40 -21 -37 -9 35 14 85 12 25 18 49 13 55 -11 14
-7 70 5 68 5 -1 11 -7 14 -14 2 -6 0 -9 -5 -6 -5 3 -9 -5 -9 -18 0 -13 3 -21
7 -19 4 3 5 -5 3 -16 -2 -11 0 -18 5 -15 5 3 7 17 4 30 -2 14 2 38 10 53 8 15
17 43 20 62 8 41 14 65 16 65 8 0 4 63 -4 75 -6 8 -6 12 -1 7 4 -4 19 3 32 15
20 19 23 19 23 4 0 -9 -4 -15 -9 -12 -5 4 -7 -3 -4 -14 3 -11 9 -22 13 -25 5
-3 6 5 2 17 -3 13 -1 19 5 15 7 -5 9 1 5 15 -3 14 -2 19 7 14 6 -4 8 -13 5
-19 -4 -7 -3 -8 2 -4 5 5 10 17 10 28 2 32 5 35 15 14 7 -16 8 -14 4 10 -3 17
0 37 6 45 8 12 9 8 5 -15 -5 -25 -4 -27 5 -12 6 10 8 25 5 33 -3 9 -1 24 4 35
7 13 8 25 1 37 -7 10 -11 12 -11 4 0 -7 -5 -10 -12 -6 -6 4 -8 3 -4 -4 11 -18
-11 -23 -25 -5 -8 9 -9 14 -3 10 6 -4 19 2 29 13 10 11 22 17 28 13 6 -4 7 -1
1 8 -5 8 -9 19 -9 24 -1 10 14 35 22 35 2 0 2 -39 -1 -87z m1014 -318 c0 -16
-9 -19 -125 -35 -372 -52 -794 -176 -1059 -310 -101 -51 -116 -56 -116 -39 0
10 8 24 19 30 10 7 17 19 16 28 -1 9 0 10 2 4 6 -17 5 -17 71 16 172 87 385
160 657 227 177 43 513 105 528 97 4 -2 7 -11 7 -18z m-3260 -547 c0 -18 -3
-56 -6 -84 l-7 -52 -116 -4 c-64 -2 -118 -3 -120 -2 -3 3 17 139 24 162 3 9
35 12 115 12 l110 0 0 -32z m-656 -30 c-4 -24 -10 -61 -13 -83 l-7 -40 -244
-12 c-623 -29 -1190 -84 -1637 -158 -117 -20 -219 -38 -228 -41 -35 -14 -11 8
34 31 298 150 873 262 1646 319 268 20 295 22 383 24 l72 2 -6 -42z m3713
-1049 c97 -13 267 -69 353 -116 260 -142 450 -384 528 -672 23 -85 26 -115 26
-266 0 -155 -2 -179 -27 -269 -52 -189 -135 -334 -270 -473 -138 -143 -301
-238 -495 -291 -87 -23 -114 -26 -267 -26 -151 1 -181 3 -267 27 -376 100
-665 390 -765 766 -23 84 -26 117 -27 261 0 142 3 177 23 255 52 199 139 353
281 496 239 243 568 354 907 308z m-2667 -754 l0 -355 80 0 80 0 0 -55 0 -55
-305 0 -305 0 0 55 0 54 151 3 150 3 -1 353 0 352 75 0 75 0 0 -355z m-2591
44 c181 -28 371 -147 493 -308 277 -367 186 -902 -197 -1156 -143 -95 -275
-135 -450 -135 -176 0 -307 40 -451 136 -173 114 -287 279 -336 483 -30 125
-22 322 16 436 44 129 100 219 201 320 199 199 429 270 724 224z"/>
<path d="M6745 7933 c-10 -32 -33 -77 -51 -99 -25 -30 -32 -48 -28 -68 5 -29
-12 -70 -26 -61 -5 3 -12 1 -15 -5 -4 -6 -1 -9 6 -8 7 2 18 -8 26 -22 7 -14
13 -20 13 -14 0 6 18 32 40 56 34 39 38 48 25 58 -13 11 -12 16 7 43 12 16 23
41 24 54 2 14 8 30 14 38 14 17 22 57 9 50 -5 -4 -13 3 -17 15 -6 17 -11 11
-27 -37z"/>
<path d="M6619 7650 c-1 -14 -3 -30 -3 -37 -1 -6 -5 -15 -10 -20 -5 -4 -7 -3
-3 2 3 6 1 17 -5 25 -8 13 -9 12 -5 -2 3 -9 3 -19 -1 -22 -3 -4 -7 -14 -8 -22
-5 -31 -14 -45 -25 -38 -7 4 -9 3 -5 -4 3 -6 2 -13 -4 -17 -6 -4 -8 -11 -4
-16 3 -6 -1 -18 -8 -27 -15 -18 -46 -81 -68 -142 -8 -19 -18 -41 -24 -49 -6
-8 -11 -24 -11 -35 -1 -13 -6 -20 -15 -18 -8 2 -12 0 -8 -4 4 -4 4 -12 -1 -18
-16 -20 -19 -81 -6 -106 l13 -24 15 31 c9 17 14 33 11 36 -3 2 4 21 15 41 l20
36 -20 10 c-16 9 -18 14 -9 26 7 7 17 11 24 7 8 -4 8 -2 -1 7 -8 9 -8 20 -1
42 8 22 13 27 20 16 5 -8 6 -4 2 14 -8 34 3 53 21 38 9 -8 16 -4 28 13 14 22
14 26 0 40 -23 23 -6 43 18 21 15 -14 19 -14 19 -3 0 8 -7 24 -15 36 -13 18
-13 22 0 33 12 10 17 7 26 -14 11 -24 14 -25 30 -10 15 13 15 19 4 41 -8 15
-13 29 -12 32 2 3 9 17 15 31 9 18 10 33 3 50 l-10 25 -2 -25z"/>
<path d="M6884 5390 c-39 -10 -104 -32 -143 -49 -76 -32 -211 -115 -211 -129
0 -5 45 -17 101 -27 114 -21 163 -15 231 30 30 20 96 105 142 183 10 17 -34
15 -120 -8z"/>
<path d="M7266 5368 c84 -134 119 -166 205 -189 39 -11 63 -9 153 6 58 11 106
22 106 25 0 11 -168 111 -230 136 -72 29 -201 64 -237 64 l-23 0 26 -42z"/>
<path d="M7060 5149 c-363 -30 -642 -335 -642 -704 0 -360 260 -655 620 -705
221 -30 451 54 605 220 251 271 256 684 11 958 -149 167 -363 250 -594 231z
m215 -84 c133 -35 260 -114 343 -215 49 -60 113 -187 131 -262 16 -68 14 -230
-5 -301 -73 -283 -328 -480 -619 -479 -274 1 -504 165 -603 430 -33 90 -42
257 -18 352 58 230 238 413 466 474 73 20 231 20 305 1z"/>
<path d="M6967 4668 c-39 -63 -127 -218 -127 -223 0 -4 32 -63 71 -131 l72
-124 143 0 143 0 70 124 c39 68 71 127 71 131 0 4 -30 60 -67 126 l-68 118
-147 1 c-142 0 -148 -1 -161 -22z"/>
<path d="M6625 4387 c-12 -37 -12 -41 4 -61 9 -11 11 -17 5 -13 -6 3 -11 0
-11 -8 0 -8 5 -11 10 -8 7 4 8 -1 3 -12 -4 -11 0 -26 11 -38 10 -11 12 -17 6
-13 -9 5 -11 2 -7 -8 3 -9 11 -13 18 -9 6 4 4 -2 -4 -12 -12 -15 -12 -17 -1
-10 11 6 13 4 8 -9 -5 -11 -3 -15 5 -10 7 5 9 2 5 -8 -3 -10 4 -24 19 -37 14
-12 22 -25 20 -30 -3 -5 2 -15 12 -22 16 -13 16 -13 2 6 -14 19 -14 19 3 6 10
-8 15 -21 12 -30 -3 -8 -3 -12 1 -8 4 4 13 -1 21 -11 8 -9 11 -11 7 -3 -5 10
-3 12 5 7 7 -5 10 -14 7 -22 -3 -8 -2 -13 2 -13 21 3 32 -2 26 -13 -4 -6 -3
-8 4 -4 6 3 21 -4 33 -16 12 -13 19 -16 15 -8 -4 8 2 4 14 -10 12 -14 19 -19
15 -13 -4 9 -1 11 9 7 9 -3 13 -10 10 -15 -3 -5 3 -6 12 -2 13 5 15 3 9 -7 -5
-9 -4 -11 4 -6 6 4 19 2 28 -6 12 -9 15 -9 9 -1 -5 9 -2 11 8 7 9 -3 14 -9 12
-13 -2 -3 17 -7 42 -8 26 -1 72 -3 103 -4 30 -1 66 4 78 11 14 7 21 8 17 1 -4
-5 6 -4 20 4 15 8 31 12 36 9 4 -3 8 -1 8 4 0 5 7 9 15 10 8 1 22 3 30 4 8 1
11 6 8 11 -4 6 2 8 15 5 12 -4 25 -1 29 4 3 7 1 8 -5 4 -7 -4 -12 -2 -12 3 0
10 21 16 42 12 4 0 5 6 2 14 -4 10 0 13 15 10 13 -2 18 1 15 10 -3 7 0 16 7
21 8 5 10 3 4 -7 -5 -8 5 -1 23 16 18 16 32 35 32 42 0 6 5 15 12 19 7 5 8 3
3 -6 -5 -8 -4 -11 3 -6 6 4 9 13 6 20 -3 8 0 17 7 22 8 5 10 3 4 -6 -5 -8 -4
-11 3 -7 5 4 8 17 5 30 -3 16 -2 18 5 9 9 -14 10 -12 21 33 2 6 8 16 14 24 9
12 9 13 0 7 -9 -5 -11 -2 -7 8 3 9 9 14 13 11 4 -2 8 2 8 10 0 8 -4 12 -9 9
-4 -3 -5 2 -2 10 3 9 9 14 13 11 4 -2 8 2 8 10 0 8 -5 11 -11 8 -6 -4 -5 1 3
10 7 9 10 17 5 17 -5 0 -2 5 6 10 13 9 13 10 0 10 -13 0 -13 1 0 10 10 6 11
10 3 10 -7 0 -12 3 -12 8 1 4 1 13 0 21 -2 26 -12 4 -27 -60 -51 -219 -240
-370 -464 -371 -146 0 -252 45 -353 151 -63 66 -113 162 -124 237 -7 51 -18
64 -28 31z"/>
<path d="M7888 5038 c-3 -7 -13 -56 -23 -109 -17 -92 -17 -99 -1 -150 25 -75
47 -103 132 -160 108 -72 104 -73 89 8 -18 92 -50 184 -92 265 -48 92 -99 163
-105 146z"/>
<path d="M6300 4963 c-55 -86 -102 -197 -126 -299 -25 -110 -22 -113 73 -49
90 60 125 103 144 177 11 39 10 62 -6 147 -10 56 -22 101 -27 101 -5 0 -31
-35 -58 -77z"/>
<path d="M6160 4301 c0 -34 44 -190 65 -230 12 -25 23 -30 90 -41 41 -7 78
-10 82 -6 13 12 -15 114 -42 154 -16 24 -60 62 -111 96 l-84 56 0 -29z"/>
<path d="M8000 4271 c-95 -65 -135 -121 -147 -206 l-6 -46 38 7 c141 26 136
23 161 90 24 65 56 214 45 213 -3 0 -44 -26 -91 -58z"/>
<path d="M1660 4706 c-93 -28 -250 -107 -250 -127 0 -7 118 -29 159 -29 63 0
118 40 180 133 32 46 32 47 9 46 -13 0 -57 -10 -98 -23z"/>
<path d="M1981 4683 c62 -93 117 -133 180 -133 41 0 159 22 159 29 0 21 -170
105 -261 131 -112 31 -116 29 -78 -27z"/>
<path d="M1700 4507 c-178 -61 -309 -198 -355 -372 -20 -77 -19 -216 1 -286
53 -182 201 -327 379 -374 76 -19 204 -19 280 0 180 47 333 200 380 380 20 77
19 216 -1 286 -53 179 -194 320 -373 373 -83 24 -230 21 -311 -7z m291 -43
c214 -63 359 -252 359 -469 0 -129 -50 -247 -144 -340 -69 -68 -136 -107 -221
-130 -305 -79 -605 157 -605 475 0 260 218 478 481 479 41 1 100 -6 130 -15z"/>
<path d="M1737 4153 c-13 -21 -39 -65 -57 -99 l-34 -61 55 -94 54 -94 110 0
110 0 54 94 55 94 -34 61 c-18 34 -44 78 -57 99 l-23 37 -105 0 -105 0 -23
-37z"/>
<path d="M2226 3936 c-17 -111 -104 -223 -214 -274 -48 -23 -71 -27 -147 -27
-76 0 -99 4 -147 27 -106 50 -181 140 -212 259 -13 50 -14 52 -21 26 -5 -18
-2 -33 6 -44 12 -14 12 -15 1 -9 -11 7 -12 4 -3 -13 7 -11 9 -21 5 -21 -3 0 1
-12 11 -26 11 -18 12 -24 4 -18 -11 6 -12 5 -2 -8 7 -8 9 -19 5 -23 -4 -5 -2
-5 4 -2 6 3 17 -6 25 -21 8 -15 20 -31 26 -35 7 -4 13 -15 13 -23 0 -8 3 -13
8 -11 10 6 42 -30 34 -39 -4 -4 -2 -4 5 0 6 3 15 1 18 -4 7 -12 55 -34 68 -32
4 1 7 -2 7 -8 0 -6 3 -9 8 -9 4 1 9 0 12 -1 6 -2 27 -7 60 -13 14 -3 27 -6 30
-7 3 -2 10 -1 15 0 6 1 33 3 60 5 28 1 63 7 78 14 16 6 33 8 39 5 7 -4 8 -2 4
4 -6 10 8 18 17 10 1 -2 13 7 26 19 13 12 28 20 32 17 4 -2 11 1 15 7 5 8 3 9
-7 4 -8 -5 2 7 21 26 19 19 39 33 44 30 5 -2 6 1 3 6 -4 6 0 16 8 23 8 7 12
16 9 21 -3 5 -1 9 5 9 10 0 27 38 23 53 -1 4 2 7 7 7 6 0 8 9 6 20 -2 11 0 20
4 20 8 0 7 87 -1 96 -3 3 -9 -15 -12 -40z"/>
<path d="M1249 4407 c-47 -74 -78 -143 -99 -218 -30 -110 -29 -114 28 -77 92
61 132 115 132 179 0 41 -22 159 -29 159 -3 0 -18 -19 -32 -43z"/>
<path d="M2430 4375 c-22 -129 0 -180 110 -255 70 -47 71 -45 40 69 -26 92
-110 261 -131 261 -3 0 -12 -34 -19 -75z"/>
<path d="M2539 3869 c-61 -42 -109 -92 -109 -115 0 -12 13 -14 68 -12 l67 3
18 70 c9 39 16 75 15 81 -2 7 -28 -5 -59 -27z"/>
</g>
</svg>
