<?xml version="1.0" standalone="no"?>
<!DOCTYPE svg PUBLIC "-//W3C//DTD SVG 20010904//EN"
 "http://www.w3.org/TR/2001/REC-SVG-20010904/DTD/svg10.dtd">
<svg version="1.0" xmlns="http://www.w3.org/2000/svg"
 width="260.000000pt" height="240.000000pt" viewBox="0 0 260.000000 240.000000"
 preserveAspectRatio="xMidYMid meet">

<g transform="translate(0.000000,240.000000) scale(0.100000,-0.100000)"
fill="#000000" stroke="none">
<path d="M1475 2324 c-115 -13 -220 -26 -232 -29 -22 -5 -60 -61 -49 -72 2 -3
12 9 20 26 19 35 10 33 266 61 216 23 261 25 280 8 8 -7 6 -3 -4 10 -23 26
-11 26 -281 -4z"/>
<path d="M1445 2289 c-172 -18 -192 -22 -210 -42 -22 -24 -110 -370 -103 -404
3 -17 21 -18 272 -18 260 0 268 1 285 21 24 30 69 427 51 449 -16 19 -52 18
-295 -6z m280 -5 c10 -10 14 -26 11 -43 -3 -14 -13 -102 -23 -195 -12 -121
-22 -175 -34 -190 -15 -19 -31 -20 -272 -24 -216 -4 -258 -2 -262 10 -6 16 57
300 81 366 10 28 23 44 37 47 20 5 371 41 424 44 12 0 29 -6 38 -15z"/>
<path d="M700 2246 c0 -18 7 -50 15 -69 8 -20 15 -65 15 -100 0 -45 -5 -68
-15 -77 -12 -10 -15 -37 -15 -126 0 -62 4 -115 8 -118 4 -2 35 -2 67 1 l60 5
-3 92 c-3 114 -8 133 -31 141 -15 4 -21 26 -35 115 -9 60 -22 123 -27 140 -15
42 -39 39 -39 -4z"/>
<path d="M1776 2270 c7 -7 4 -63 -7 -167 -10 -87 -18 -171 -17 -188 l0 -30 7
30 c6 28 7 28 13 8 10 -36 51 -46 163 -39 77 5 103 11 113 24 26 33 -7 303
-39 323 -10 6 -6 9 13 9 19 0 26 -4 22 -14 -4 -10 1 -12 19 -9 39 8 48 -17 58
-162 10 -127 9 -138 -8 -151 -15 -11 -15 -13 -2 -14 23 0 47 22 53 50 2 14 4
6 3 -17 -2 -31 1 -43 12 -43 11 0 12 11 8 53 -4 28 -9 105 -13 170 -4 64 -12
123 -18 131 -7 9 -69 19 -186 30 -206 19 -207 19 -194 6z m109 -15 c-23 -8
-85 -10 -85 -3 0 4 21 8 48 7 26 0 43 -2 37 -4z m88 -12 c-13 -2 -33 -2 -45 0
-13 2 -3 4 22 4 25 0 35 -2 23 -4z m18 -29 c9 -3 19 -15 23 -27 12 -47 28
-227 22 -250 -6 -24 -10 -26 -83 -29 -43 -2 -96 -1 -118 2 l-40 5 -3 70 c-4
78 14 213 31 233 8 10 28 12 81 7 39 -3 78 -9 87 -11z m160 -55 c4 -35 7 -91
6 -124 0 -37 -3 -18 -8 50 -5 61 -14 118 -20 129 -8 14 -8 17 3 14 8 -3 15
-29 19 -69z"/>
<path d="M2035 1830 c4 -12 1 -28 -7 -37 -11 -14 -11 -15 2 -11 20 6 32 68 13
68 -10 0 -12 -6 -8 -20z"/>
<path d="M2315 1783 c-16 -2 -107 -42 -201 -87 l-171 -83 -6 -44 c-4 -30 -2
-48 8 -58 16 -16 36 -6 28 14 -3 10 1 15 11 15 22 0 64 -86 49 -101 -8 -8 -16
-3 -28 22 -16 30 -18 31 -28 13 -5 -10 -16 -26 -23 -35 -12 -13 -9 -24 21 -73
38 -63 43 -86 21 -86 -8 0 -27 25 -41 55 -15 30 -30 55 -34 55 -3 0 -40 -10
-81 -23 -71 -22 -75 -24 -78 -54 -2 -23 -7 -30 -18 -26 -25 9 -64 -7 -74 -30
-7 -19 -9 -17 -9 16 -1 32 -4 37 -25 37 -13 0 -35 9 -49 20 -22 18 -25 28 -29
101 -3 71 -6 84 -26 97 -12 8 -22 23 -22 33 0 24 -24 24 -315 1 l-210 -17 5
-150 c7 -195 5 -354 -3 -385 -4 -16 -14 -26 -26 -27 -19 -2 -20 2 -14 56 4 40
2 61 -6 65 -15 10 -270 -24 -277 -36 -3 -5 5 -6 18 -4 41 10 178 26 214 26 31
0 34 -3 34 -30 0 -25 -4 -30 -32 -34 -18 -2 -78 -11 -133 -19 -93 -13 -109
-13 -229 6 -106 17 -130 24 -134 39 -6 25 -21 23 -73 -11 -52 -33 -101 -105
-126 -187 -16 -51 -33 -71 -33 -39 0 8 -4 15 -10 15 -5 0 -10 5 -10 10 0 6 6
10 14 10 16 0 30 43 16 48 -18 6 -11 22 9 22 22 0 35 28 25 54 -4 11 -1 16 14
16 26 0 42 21 36 46 -4 16 0 20 23 19 22 0 27 4 25 19 -3 15 1 18 18 13 27 -7
52 2 44 15 -4 6 0 14 7 19 31 19 -1 17 -42 -3 -93 -46 -189 -175 -207 -278 -4
-24 -12 -45 -18 -47 -19 -6 4 104 35 165 34 67 104 142 158 171 21 11 33 20
27 21 -20 0 -99 -57 -138 -100 -49 -54 -85 -133 -99 -216 -12 -67 -30 -81 -35
-26 -4 42 23 135 55 191 14 25 47 65 72 90 34 33 38 39 14 23 -131 -92 -201
-338 -134 -469 26 -51 72 -98 125 -126 33 -18 57 -22 131 -22 80 0 95 3 136
27 88 52 151 149 167 258 7 54 8 55 42 56 62 1 63 2 56 30 -5 20 -4 25 6 22 7
-3 37 -13 66 -23 l52 -19 16 22 c8 12 19 20 24 17 12 -8 33 23 24 37 -4 7 -4
10 1 6 4 -4 26 8 48 27 90 77 198 100 290 62 44 -19 50 -30 7 -15 -129 44
-347 -162 -390 -369 -13 -61 -30 -79 -30 -31 1 47 39 154 80 222 38 64 122
146 179 176 20 10 32 19 28 20 -24 1 -99 -51 -150 -103 -72 -75 -131 -193
-147 -292 -13 -79 -17 -87 -35 -62 -22 30 12 165 67 267 16 30 22 46 13 35
-30 -35 -74 -138 -87 -200 -6 -33 -16 -63 -21 -67 -14 -9 -2 -143 18 -201 25
-71 103 -151 173 -177 75 -29 166 -24 237 13 61 30 134 107 168 173 25 50 28
58 47 131 8 33 14 40 29 36 15 -4 20 2 25 24 8 36 -9 229 -23 267 -7 16 -9 31
-6 34 3 3 5 0 5 -6 0 -32 209 0 228 34 7 13 12 14 29 4 22 -14 93 -6 93 10 0
5 -8 7 -17 3 -17 -5 -17 -5 -1 8 15 12 16 23 9 72 -10 71 -21 85 -56 69 -20
-9 -25 -19 -26 -49 -1 -24 -7 -4 -15 52 -8 50 -12 99 -10 110 2 11 4 5 5 -14
1 -29 4 -33 24 -27 12 3 30 6 40 6 13 0 17 9 18 38 2 40 2 39 15 -75 l5 -51
60 -4 60 -3 -6 27 c-11 46 12 40 46 -14 19 -29 44 -63 56 -76 49 -53 15 -58
-38 -6 l-38 37 -7 -39 c-5 -28 -2 -46 10 -67 9 -16 16 -41 16 -57 0 -21 13
-41 51 -77 65 -61 69 -64 143 -75 111 -16 194 -17 200 -2 3 8 17 14 32 14 16
0 28 6 31 18 2 10 14 22 26 27 12 6 23 19 25 30 2 11 14 31 27 45 13 14 26 44
30 68 4 26 14 46 26 52 15 8 17 15 9 35 -11 29 -5 51 23 83 16 17 18 25 9 34
-17 17 -15 54 5 85 16 24 16 26 0 38 -21 15 -22 53 -2 79 19 25 19 36 1 36
-16 0 -28 52 -20 87 5 20 1 30 -17 43 -18 15 -23 26 -21 58 2 28 -2 41 -13 45
-8 4 -15 16 -15 27 0 19 4 21 30 15 18 -4 30 -2 30 3 0 6 -19 39 -42 74 l-43
63 -60 1 c-33 1 -73 -1 -90 -3z m25 -72 c14 -4 32 -20 40 -36 8 -17 28 -43 43
-59 15 -17 25 -36 22 -44 -3 -8 2 -24 12 -36 10 -12 4 -8 -14 7 -100 91 -219
-33 -259 -269 -34 -199 17 -406 111 -444 15 -7 16 -9 4 -9 -9 -1 -28 11 -42
25 -14 14 -30 23 -35 20 -6 -3 -15 1 -22 9 -7 9 -21 13 -31 10 -24 -8 -35 14
-14 29 23 16 11 86 -16 93 -23 6 -24 16 -4 33 20 17 19 80 -2 109 -15 22 -15
25 0 36 16 12 27 108 14 122 -10 10 -54 -17 -108 -65 -45 -40 -75 -49 -63 -18
7 19 130 107 161 115 19 5 30 18 39 44 28 80 -19 87 -107 17 -55 -43 -69 -48
-69 -25 0 26 160 119 168 97 6 -20 39 0 55 33 22 46 13 77 -22 69 -25 -6 -79
-33 -128 -64 -12 -8 -25 -11 -29 -7 -13 13 18 36 88 63 60 24 74 26 101 16 26
-10 34 -9 49 5 10 9 18 29 18 46 l0 29 -53 -4 c-30 -2 -72 -14 -95 -26 -25
-13 -44 -17 -47 -11 -8 12 42 33 118 50 57 12 58 12 87 -16 34 -32 35 -32 43
12 6 30 5 32 -34 38 -22 4 -62 4 -87 1 -32 -4 -41 -3 -27 3 23 11 99 12 135 2z
m-259 -93 c22 -28 24 -44 4 -52 -17 -6 -50 48 -40 64 9 15 15 12 36 -12z m329
-78 c31 -16 69 -92 85 -166 44 -205 -28 -463 -142 -510 -30 -13 -38 -13 -66 1
-32 15 -75 71 -63 82 3 4 6 1 6 -5 0 -16 42 -15 65 2 18 13 17 14 -10 14 -78
0 -118 177 -80 354 36 174 124 271 205 228z m-452 -327 c44 -70 51 -93 28 -93
-17 0 -28 13 -60 74 -25 48 -34 86 -18 86 4 0 26 -30 50 -67z m152 -52 c0 -13
-109 -116 -123 -116 -28 0 -12 28 43 74 60 50 80 60 80 42z m-855 -60 c22 -10
63 -43 90 -72 46 -48 46 -50 8 -17 -59 52 -76 59 -159 65 -44 4 -79 11 -85 19
-6 8 -26 14 -43 15 -30 1 -30 1 -6 10 37 12 148 1 195 -20z m-5 -126 c5 -14
16 -25 25 -25 8 0 15 -7 15 -15 0 -11 -13 -14 -57 -13 -32 0 -74 -6 -93 -14
-73 -31 -155 -143 -195 -265 -15 -48 -35 -71 -35 -42 0 7 -8 18 -17 25 -17 12
-16 13 8 22 31 12 43 46 23 63 -17 14 -8 33 12 25 20 -8 51 41 35 57 -17 17
-13 30 8 24 24 -6 53 23 51 50 -4 31 -1 34 19 24 21 -12 48 10 36 29 -11 17 5
32 21 19 19 -16 44 -4 44 21 0 21 14 27 25 10 11 -17 42 -11 48 10 7 27 16 25
27 -5z m472 -32 c7 -9 7 -13 0 -13 -13 0 -22 25 -21 53 2 19 2 19 6 -3 3 -14
10 -31 15 -37z m-1122 -52 c0 -12 -20 -25 -27 -18 -7 7 6 27 18 27 5 0 9 -4 9
-9z m687 -53 c14 -13 32 -36 40 -52 11 -21 18 -25 26 -17 19 19 25 12 31 -43
29 -228 -168 -477 -327 -417 -54 21 -107 111 -107 182 0 45 17 42 24 -3 13
-82 65 -148 116 -148 8 0 -1 8 -20 19 -73 38 -105 148 -76 261 50 194 200 306
293 218z m-693 -35 c-3 -16 -19 -55 -35 -89 -58 -123 -183 -179 -270 -121 -51
33 -105 157 -69 157 6 0 10 -10 10 -21 0 -32 38 -94 70 -112 38 -23 75 -21
127 4 51 25 103 88 123 150 13 42 26 59 43 59 4 0 5 -12 1 -27z"/>
<path d="M2396 1484 c42 -44 67 -125 68 -221 1 -55 4 -73 15 -73 11 0 13 18 9
93 -5 101 -28 168 -72 212 -40 40 -58 30 -20 -11z"/>
<path d="M2274 1468 c-19 -23 -19 -23 1 -7 11 10 29 19 40 22 19 4 19 5 -1 6
-11 0 -29 -9 -40 -21z"/>
<path d="M2336 1248 c-21 -29 -21 -82 0 -99 14 -11 18 -10 30 6 18 24 18 89 0
104 -11 10 -17 7 -30 -11z"/>
<path d="M2241 1167 c-1 -34 21 -97 35 -97 2 0 0 10 -7 21 -6 12 -15 42 -19
68 l-8 46 -1 -38z"/>
<path d="M1179 812 c55 -27 74 -62 74 -129 0 -69 -15 -125 -44 -173 -20 -32
-23 -33 -29 -15 -7 19 -8 19 -15 1 -5 -11 -3 -21 4 -26 9 -5 5 -13 -15 -29
-14 -11 -23 -21 -17 -21 16 0 80 74 104 120 14 29 24 70 27 116 5 87 -13 135
-63 158 -45 22 -68 20 -26 -2z"/>
<path d="M1114 776 c-8 -22 3 -33 18 -18 9 9 9 15 0 24 -9 9 -13 7 -18 -6z"/>
<path d="M1220 690 c0 -11 5 -20 10 -20 6 0 10 9 10 20 0 11 -4 20 -10 20 -5
0 -10 -9 -10 -20z"/>
<path d="M1010 635 c0 -8 7 -15 15 -15 8 0 15 7 15 15 0 8 -7 15 -15 15 -8 0
-15 -7 -15 -15z"/>
<path d="M1172 628 c-14 -14 -16 -45 -3 -53 10 -5 41 21 41 34 0 18 -26 31
-38 19z"/>
<path d="M1117 583 c-13 -12 -7 -23 13 -23 11 0 20 7 20 15 0 15 -21 21 -33 8z"/>
<path d="M1027 473 c-13 -12 -7 -33 8 -33 8 0 15 9 15 20 0 20 -11 26 -23 13z"/>
<path d="M337 1663 c-2 -5 6 -91 19 -193 13 -102 25 -211 28 -244 3 -32 10
-64 16 -71 12 -15 219 -41 230 -29 4 5 4 36 0 69 -5 33 -18 142 -30 243 -12
101 -25 194 -30 208 -9 23 -12 24 -119 24 -60 0 -112 -3 -114 -7z"/>
<path d="M1095 1648 c-207 -11 -359 -25 -290 -27 67 -1 527 28 533 34 6 6 -30
5 -243 -7z"/>
<path d="M788 1523 c12 -2 32 -2 45 0 12 2 2 4 -23 4 -25 0 -35 -2 -22 -4z"/>
<path d="M216 1478 c-9 -12 -16 -29 -16 -38 0 -9 5 -5 13 9 17 34 35 37 48 7
12 -25 11 -31 -19 -87 -1 -3 10 -14 25 -24 27 -18 28 -18 13 0 -14 17 -13 17
10 10 19 -6 22 -5 14 5 -9 9 -8 19 4 40 15 26 15 31 -1 64 -14 29 -22 36 -46
36 -20 0 -35 -8 -45 -22z"/>
<path d="M226 1451 c-4 -7 -5 -15 -2 -18 9 -9 19 4 14 18 -4 11 -6 11 -12 0z"/>
<path d="M770 1430 c-20 -20 -37 -67 -27 -76 3 -3 13 10 22 30 22 45 40 46 55
2 12 -38 1 -79 -27 -95 -15 -8 -10 -10 24 -11 48 0 73 25 73 73 0 79 -71 126
-120 77z"/>
<path d="M771 1371 c-12 -22 -5 -27 19 -11 11 7 12 12 3 21 -8 8 -14 6 -22
-10z"/>
<path d="M330 1293 c18 -24 35 -43 37 -43 9 0 -18 37 -43 60 -24 22 -23 20 6
-17z"/>
<path d="M300 1216 c0 -2 15 -6 34 -8 19 -2 32 0 30 4 -5 8 -64 12 -64 4z"/>
<path d="M677 1166 c-13 -33 -8 -46 20 -46 24 0 25 1 11 18 -9 9 -17 24 -20
31 -3 12 -6 11 -11 -3z"/>
</g>
</svg>
