<?xml version="1.0" standalone="no"?>
<!DOCTYPE svg PUBLIC "-//W3C//DTD SVG 20010904//EN"
 "http://www.w3.org/TR/2001/REC-SVG-20010904/DTD/svg10.dtd">
<svg version="1.0" xmlns="http://www.w3.org/2000/svg"
 width="900.000000pt" height="438.000000pt" viewBox="0 0 900.000000 438.000000"
 preserveAspectRatio="xMidYMid meet">
<metadata>
Created by potrace 1.16, written by Peter Selinger 2001-2019
</metadata>
<g transform="translate(0.000000,438.000000) scale(0.100000,-0.100000)"
fill="#000000" stroke="none">
<path d="M5215 4204 c-11 -2 -137 -5 -280 -7 -143 -3 -269 -7 -280 -10 -11 -2
-58 -8 -105 -12 -47 -4 -134 -16 -194 -26 -60 -10 -112 -16 -117 -14 -4 3 -10
1 -14 -5 -3 -5 -17 -10 -31 -10 -14 0 -46 -7 -72 -15 -60 -20 -79 -55 -66
-124 9 -44 10 -46 41 -43 24 2 33 -1 38 -17 4 -14 15 -21 31 -21 23 0 24 -2
18 -37 -4 -21 -9 -41 -11 -45 -2 -5 -38 -8 -79 -8 l-74 0 0 40 c0 99 -60 258
-119 314 -26 25 -33 27 -46 16 -24 -20 -15 -99 20 -180 17 -40 30 -90 33 -131
l4 -66 -118 -6 c-66 -4 -120 -11 -122 -17 -2 -5 -21 -10 -41 -10 -39 0 -72
-24 -70 -51 0 -8 5 -4 11 9 13 26 46 37 86 28 15 -4 70 -9 122 -12 121 -8 130
-13 130 -69 0 -37 -3 -45 -18 -45 -17 0 -20 -12 -25 -112 -4 -62 -7 -146 -7
-187 0 -56 -4 -79 -17 -93 -14 -15 -18 -49 -24 -166 -4 -81 -8 -147 -8 -148
-1 0 -29 -2 -63 -3 -35 -1 -71 -4 -81 -7 -9 -3 -24 1 -32 10 -22 21 -125 11
-144 -15 -9 -13 -26 -19 -55 -19 -22 0 -104 -9 -181 -20 -77 -11 -155 -20
-175 -21 -33 -1 -33 -2 -10 -10 19 -7 16 -8 -17 -4 -78 9 -398 -70 -567 -141
-123 -52 -194 -125 -230 -239 -38 -123 -66 -479 -46 -592 12 -72 4 -97 -35
-107 -14 -4 -25 -13 -25 -21 0 -11 7 -14 24 -9 14 3 33 1 43 -5 15 -9 12 -10
-18 -11 -20 0 -55 -6 -77 -14 -22 -8 -43 -12 -46 -9 -3 4 -6 1 -6 -6 0 -9 -8
-11 -26 -7 -20 5 -25 4 -21 -7 4 -10 -1 -13 -17 -10 -27 6 -45 -14 -49 -55 -2
-18 -7 -35 -10 -39 -17 -16 -5 -23 15 -9 12 9 29 16 37 16 9 0 -22 -19 -67
-42 -65 -34 -84 -40 -91 -30 -4 8 -11 13 -15 13 -15 -2 -16 0 -6 19 8 15 21
20 55 20 33 0 45 4 45 15 0 11 -11 15 -40 15 -43 0 -90 -34 -90 -64 0 -8 -9
-18 -20 -21 -24 -8 -27 -25 -4 -25 39 0 2 -37 -78 -79 -47 -26 -89 -48 -91
-51 -3 -3 -20 -83 -38 -178 -36 -194 -37 -191 36 -193 74 -2 88 -10 100 -60 7
-25 28 -73 48 -107 31 -53 35 -66 26 -86 -10 -21 -6 -32 29 -82 22 -33 56 -75
76 -93 20 -19 36 -40 36 -47 0 -21 75 -80 141 -111 195 -91 449 -127 629 -88
107 23 179 59 254 126 l59 53 16 -24 c9 -13 30 -41 48 -62 27 -33 31 -43 23
-64 -8 -20 -6 -32 9 -52 34 -47 84 -89 175 -146 68 -42 106 -59 165 -71 42 -9
103 -25 135 -36 65 -21 102 -24 110 -10 3 5 72 6 155 3 138 -4 149 -3 152 13
3 13 24 23 79 36 41 10 85 15 98 12 27 -6 52 12 52 40 0 12 21 40 48 65 73 69
85 75 117 60 42 -19 55 7 48 91 -5 56 -2 74 16 109 19 37 25 42 59 43 20 1 40
1 44 0 3 0 9 16 13 37 4 26 0 50 -14 82 -14 33 -18 58 -14 92 7 56 24 66 64
37 53 -38 181 -91 278 -115 69 -17 139 -26 246 -31 181 -7 218 2 327 81 40 29
90 61 110 70 20 10 60 42 88 72 56 60 69 66 63 30 -3 -13 0 -33 6 -45 22 -39
201 -172 302 -222 54 -27 99 -53 99 -58 0 -21 161 -51 330 -62 96 -6 177 -15
178 -20 6 -15 92 -11 92 5 0 20 19 25 128 32 106 7 126 16 118 50 -9 33 47 78
86 70 15 -3 40 -1 54 4 24 9 26 14 22 58 -2 41 2 54 25 85 25 33 33 37 73 37
60 0 74 27 49 97 -17 48 -17 48 10 106 26 55 28 57 66 57 33 0 41 4 49 25 8
21 4 33 -20 68 -29 42 -29 42 -15 104 16 78 18 81 60 89 32 6 35 9 35 41 0 24
-10 47 -30 73 -26 32 -30 46 -30 96 0 56 2 60 35 83 50 34 48 68 -9 129 -25
27 -50 61 -56 77 -10 26 -8 34 19 72 43 61 35 89 -45 160 l-62 57 19 48 c18
46 18 50 2 74 -9 14 -45 46 -80 71 -70 50 -69 46 -47 139 10 41 -128 183 -242
250 -52 30 -58 41 -11 19 l32 -16 -22 19 c-22 19 -22 20 -3 25 16 4 20 14 20
50 0 24 14 81 30 127 25 69 30 98 30 172 l0 89 -117 -6 c-65 -4 -124 -9 -132
-11 -11 -3 -12 -31 -6 -149 l7 -145 -26 0 c-25 0 -26 2 -26 64 0 129 -61 526
-115 755 -14 57 -23 106 -20 109 3 3 0 11 -6 19 -6 7 -8 13 -4 13 4 0 3 6 -2
13 -6 6 -16 29 -23 51 -15 45 -6 56 50 56 45 0 60 15 60 57 0 30 3 33 30 33
17 0 30 3 30 6 0 14 -21 42 -36 48 -24 9 -204 33 -383 51 -114 11 -157 19
-165 30 -21 29 -256 40 -634 31 -164 -4 -241 -3 -237 4 3 5 3 9 -2 9 -4 -1
-17 -3 -28 -5z m1245 -371 c0 -10 6 -13 18 -8 14 5 15 4 5 -6 -17 -17 -16 -63
1 -97 28 -55 115 -505 103 -535 -3 -6 -6 -1 -6 12 -2 39 -62 235 -78 254 -9 9
-22 17 -30 17 -7 0 -13 9 -13 21 0 82 -24 319 -35 341 -10 20 -10 28 -1 31 15
6 36 -12 36 -30z m-54 -14 c6 -13 17 -104 23 -202 8 -117 24 -237 47 -354 50
-257 47 -270 -48 -261 -29 3 -64 2 -78 -3 -14 -4 -69 -9 -122 -11 l-97 -4 -12
28 c-10 24 -6 38 44 135 30 60 71 137 91 171 20 35 33 69 29 75 -3 5 -2 7 4 4
9 -6 98 161 90 169 -2 3 -51 -68 -107 -158 -136 -216 -139 -220 -90 -168 42
45 42 45 24 10 -9 -19 -35 -60 -58 -90 l-41 -55 -5 30 c-4 21 -12 31 -28 33
-24 4 -29 21 -10 40 9 9 8 25 -2 67 -11 46 -11 58 -1 65 18 11 9 46 -11 42
-13 -2 -18 9 -22 50 -4 29 -13 116 -22 193 -8 77 -18 150 -21 163 -3 12 -4 22
-2 23 47 8 324 34 362 33 45 0 53 -4 63 -25z m-552 -161 c23 -182 46 -413 46
-470 0 -45 -2 -48 -25 -48 -21 0 -25 5 -25 29 0 15 -8 39 -19 52 -15 20 -22
66 -40 254 -12 127 -24 249 -27 273 l-6 42 39 0 40 0 17 -132z m-839 55 c0
-35 -2 -63 -5 -63 -3 0 -4 -101 -2 -225 l3 -225 -43 0 c-24 0 -55 -7 -70 -14
-26 -14 -28 -14 -28 6 0 12 5 37 12 55 10 27 10 36 0 42 -10 6 -11 43 -3 182
15 248 20 289 37 289 8 0 14 5 14 11 0 6 17 9 43 7 l42 -3 0 -62z m738 -135
c10 -112 21 -230 24 -263 l5 -60 -80 3 c-95 4 -156 -10 -187 -44 l-23 -25 -7
93 c-6 96 8 419 20 451 7 17 22 22 63 18 12 -1 22 3 22 8 0 9 36 16 110 19
l35 2 18 -202z m-1403 160 c0 -13 5 -30 10 -38 8 -13 11 -12 25 5 9 11 14 14
10 8 -12 -25 54 -15 82 13 24 24 29 25 102 19 42 -3 85 -10 96 -15 11 -5 33
-11 49 -15 l29 -6 -7 -137 c-3 -75 -9 -217 -12 -316 -7 -178 -7 -178 14 -167
11 6 24 11 29 11 4 0 -17 -14 -47 -30 -72 -39 -93 -66 -86 -103 l6 -30 -46 7
c-26 3 -77 6 -113 6 l-66 0 -93 128 -93 127 7 85 c3 47 12 137 19 200 9 76 10
117 3 121 -6 4 -7 26 -3 55 12 94 12 94 50 94 30 0 35 -4 35 -22z m996 12 c24
0 15 -36 -12 -49 -30 -13 -27 -35 4 -39 22 -3 22 -7 23 -185 1 -100 2 -258 3
-351 l1 -169 -27 -8 c-25 -6 -28 -4 -39 29 -6 20 -31 56 -54 81 l-42 46 -7
104 c-4 58 -12 113 -18 124 -8 16 -5 23 17 41 33 26 50 93 66 264 l12 124 30
-6 c16 -3 36 -6 43 -6z m-1217 -69 c11 -7 11 -20 1 -78 -11 -62 -15 -70 -32
-65 -11 3 -24 -1 -28 -9 -11 -17 7 -50 23 -43 10 3 12 -5 9 -30 -3 -25 -8 -33
-18 -29 -8 3 -15 -1 -15 -8 -1 -8 -2 -21 -3 -29 0 -8 -8 -16 -16 -18 -11 -2
-16 8 -18 39 -3 40 -2 41 23 35 22 -6 26 -4 23 11 -2 11 -12 18 -27 18 -13 0
-26 6 -28 13 -3 6 0 12 6 12 18 0 14 109 -4 116 -18 7 -20 60 -2 67 20 9 91 7
106 -2z m2367 -239 c-7 -11 50 -199 78 -257 21 -42 25 -68 28 -160 l3 -110
-50 -1 c-167 -4 -325 -15 -355 -24 -19 -5 -56 -10 -81 -10 -44 0 -47 2 -53 32
-3 17 -4 33 -2 35 2 2 26 6 53 9 48 6 50 5 71 -27 12 -19 22 -29 22 -24 0 6
-7 20 -15 32 -15 21 -14 21 60 28 46 5 86 3 103 -3 34 -14 78 -10 75 6 -2 7 8
12 23 12 14 0 34 5 45 11 40 21 40 49 4 242 -40 207 -41 217 -19 217 8 0 13
-4 10 -8z m-2419 -110 c8 -5 9 -26 3 -77 -5 -39 -12 -125 -16 -192 -7 -116 -8
-123 -28 -123 -21 0 -21 2 -15 147 4 82 7 172 8 201 1 42 4 52 19 52 9 0 22
-4 29 -8z m2370 -1350 c-19 -21 -22 -37 -5 -26 7 4 8 3 4 -5 -4 -6 -11 -9 -15
-7 -4 3 -12 -4 -19 -15 -8 -12 -9 -19 -1 -19 5 0 7 -5 4 -10 -4 -6 -10 -8 -14
-6 -8 6 -45 -64 -37 -71 2 -3 24 14 47 37 59 57 108 80 169 80 53 0 85 -12
108 -39 11 -13 12 -13 6 -1 -4 8 27 -20 70 -62 47 -48 75 -82 70 -89 -4 -8 -3
-9 5 -5 6 4 9 13 5 19 -3 7 1 4 10 -7 25 -31 41 -124 40 -241 -1 -96 -5 -122
-32 -203 -35 -102 -80 -178 -136 -231 -20 -19 -36 -32 -36 -28 0 3 -16 -1 -35
-9 -19 -7 -63 -14 -97 -14 l-63 0 -83 88 c-74 77 -84 94 -97 147 -48 194 -17
473 72 635 34 62 60 100 71 100 3 0 -2 -8 -11 -18z m634 -97 c21 -44 45 -104
52 -133 7 -29 15 -50 18 -47 3 3 3 -9 1 -26 -3 -22 -1 -30 7 -25 11 7 15 -57
12 -189 -7 -248 -141 -506 -308 -590 -51 -27 -68 -30 -148 -30 -81 0 -95 3
-144 30 -88 49 -201 191 -225 285 -7 24 -6 24 6 4 7 -12 38 -49 69 -82 50 -55
60 -61 105 -67 36 -5 64 -2 107 12 31 11 57 18 57 17 0 -2 -18 -13 -39 -24
-52 -26 -95 -30 -153 -15 -27 6 -48 10 -48 9 0 -8 81 -44 99 -44 35 0 118 36
159 69 22 17 59 57 83 90 24 33 48 57 53 54 5 -3 6 -1 2 5 -3 6 0 17 8 25 8 8
12 17 9 21 -4 3 0 6 7 6 7 0 11 3 7 6 -3 3 7 20 23 38 17 17 30 35 30 40 0 6
-7 1 -16 -10 -14 -18 -15 -18 -4 4 6 12 15 22 21 22 6 0 7 5 4 10 -3 6 -1 10
6 10 7 0 10 3 6 6 -3 3 1 23 8 44 14 40 24 85 30 135 2 17 4 30 5 30 5 0 10
47 12 97 0 32 4 55 9 53 4 -3 5 -15 2 -28 -3 -14 -2 -18 4 -10 6 9 12 7 22 -8
10 -17 10 -20 -1 -14 -7 3 -6 1 3 -7 9 -7 16 -15 16 -18 1 -3 6 -24 12 -47 7
-24 13 -67 14 -96 1 -34 6 -54 14 -54 7 0 12 3 11 6 -2 18 3 32 10 27 21 -13
19 181 -3 280 -9 39 -36 111 -60 160 -24 49 -37 80 -28 69 8 -11 33 -56 54
-100z m-3218 -679 c-91 -22 -181 -95 -246 -198 -36 -58 -67 -174 -67 -253 0
-76 15 -161 32 -180 9 -10 3 32 -13 95 -5 19 -9 44 -8 55 1 19 37 -102 41
-137 1 -10 7 -18 13 -18 5 0 3 -5 -5 -10 -11 -7 -12 -10 -2 -10 8 0 11 -7 8
-18 -7 -21 56 -88 72 -78 6 3 14 1 18 -5 4 -8 3 -9 -4 -5 -7 4 -12 5 -12 2 0
-7 72 -40 82 -38 3 1 12 -5 18 -14 11 -12 10 -14 -6 -9 -10 3 -5 -1 11 -9 35
-18 79 -21 70 -6 -4 6 -1 17 5 25 10 13 8 15 -12 15 -13 0 -33 7 -44 15 -26
20 -40 19 -23 -2 13 -15 12 -15 -7 -5 -12 6 -24 8 -28 5 -3 -3 -6 -2 -6 4 0
15 29 25 51 18 9 -3 20 -1 24 5 3 5 -2 10 -11 10 -10 0 -15 3 -12 6 3 3 24 0
47 -6 32 -8 41 -16 41 -33 0 -12 4 -17 8 -12 4 6 16 17 26 25 18 14 19 13 13
-4 -6 -14 -4 -17 9 -12 8 3 20 6 25 6 5 0 9 8 9 19 0 23 19 39 43 36 24 -4 92
69 114 122 10 24 22 43 27 43 5 0 2 8 -5 17 -8 9 -9 14 -3 10 7 -4 16 4 22 21
22 59 31 92 23 92 -4 0 -3 20 3 45 6 25 14 45 18 45 11 0 10 -126 -1 -173 -12
-48 4 -58 19 -11 15 45 28 230 17 249 -4 9 -4 15 1 15 12 0 32 -77 33 -132 l2
-43 7 35 c14 68 10 -8 -5 -86 -32 -168 -124 -299 -258 -370 -66 -35 -79 -38
-152 -38 -103 -1 -165 26 -235 100 -166 175 -153 482 28 676 66 71 151 118
212 117 14 -1 2 -6 -27 -13z m106 -136 c183 -93 173 -416 -16 -527 -55 -32
-139 -36 -192 -9 -76 40 -129 131 -138 236 -18 210 183 384 346 300z"/>
<path d="M6365 1723 c-42 -100 -60 -187 -58 -283 2 -89 5 -101 42 -175 21 -44
54 -94 72 -111 34 -32 123 -77 133 -67 3 3 19 7 35 8 38 3 107 43 146 85 l30
32 -35 -20 c-64 -37 -166 -18 -229 41 -39 37 -110 182 -103 210 1 4 -2 7 -8 7
-5 0 -9 3 -8 8 1 4 -1 24 -5 45 -6 25 -12 35 -20 30 -9 -5 -9 -3 -1 8 5 8 9
34 9 59 -1 25 3 51 9 59 9 12 8 13 -3 6 -11 -6 -13 -4 -8 9 4 10 7 24 7 32 0
8 6 11 15 8 20 -8 45 13 38 32 -10 28 -42 15 -58 -23z"/>
<path d="M6585 1560 c-9 -28 -10 -118 -2 -126 11 -11 8 -44 -3 -44 -5 0 -9 5
-7 11 1 6 -8 13 -20 15 -30 5 -31 -31 -2 -47 15 -8 19 -8 15 0 -12 18 7 12 47
-14 30 -21 37 -31 35 -55 -2 -33 -13 -30 -13 3 0 16 -7 23 -26 25 -24 3 -26 0
-22 -25 4 -28 4 -27 -32 12 -20 22 -45 57 -56 78 -11 20 -21 37 -23 37 -8 0
12 -78 29 -113 29 -61 77 -92 146 -93 32 -1 56 2 54 6 -5 8 24 24 37 22 4 -1
4 6 1 15 -4 9 -2 14 3 10 5 -3 16 8 23 24 9 20 20 29 37 29 19 0 24 5 24 25 0
27 -33 51 -53 38 -25 -16 -37 -12 -26 8 5 11 7 24 4 29 -9 15 39 12 54 -2 9
-9 9 -5 -2 12 -8 14 -17 36 -20 50 -6 24 -10 25 -72 25 -36 0 -65 -3 -65 -7 0
-5 -4 -8 -10 -8 -5 0 -9 5 -7 11 1 6 -4 14 -12 17 -10 3 -12 0 -8 -12 4 -9 3
-16 -2 -16 -12 0 -22 45 -15 64 3 9 4 16 1 16 -3 0 -8 -9 -12 -20z"/>
<path d="M3616 3717 c-14 -14 -28 -38 -32 -54 l-8 -28 -7 25 c-4 15 -7 -6 -8
-57 -1 -67 -4 -83 -16 -83 -8 0 -15 -9 -15 -20 0 -11 3 -20 8 -20 4 0 5 -45 4
-101 -5 -131 0 -149 38 -149 17 0 38 8 48 18 31 31 76 302 70 422 -3 62 -4 65
-30 68 -19 2 -35 -5 -52 -21z"/>
</g>
</svg>
